<?xml version="1.0" encoding="UTF-8" standalone="no"?>
<!-- Created with Inkscape (http://www.inkscape.org/) -->
<svg
   xmlns:dc="http://purl.org/dc/elements/1.1/"
   xmlns:cc="http://creativecommons.org/ns#"
   xmlns:rdf="http://www.w3.org/1999/02/22-rdf-syntax-ns#"
   xmlns:svg="http://www.w3.org/2000/svg"
   xmlns="http://www.w3.org/2000/svg"
   xmlns:xlink="http://www.w3.org/1999/xlink"
   xmlns:sodipodi="http://sodipodi.sourceforge.net/DTD/sodipodi-0.dtd"
   xmlns:inkscape="http://www.inkscape.org/namespaces/inkscape"
   width="365"
   height="275"
   id="svg2424"
   sodipodi:version="0.32"
   inkscape:version="0.46"
   version="1.0"
   sodipodi:docbase="/home/thayer/arch/artwork/archlinux-official-artwork"
   sodipodi:docname="archlinux-vertical-dark-grad2.svg"
   inkscape:output_extension="org.inkscape.output.svg.inkscape"
   inkscape:export-filename="/home/thayer/archlinux-logo-contest/vertical.png"
   inkscape:export-xdpi="90"
   inkscape:export-ydpi="90">
  <defs
     id="defs2426">
    <inkscape:perspective
       sodipodi:type="inkscape:persp3d"
       inkscape:vp_x="0 : 137.5 : 1"
       inkscape:vp_y="0 : 1000 : 0"
       inkscape:vp_z="365 : 137.5 : 1"
       inkscape:persp3d-origin="182.5 : 91.666667 : 1"
       id="perspective72" />
    <linearGradient
       gradientUnits="userSpaceOnUse"
       id="path1082_2_"
       y2="129.3468"
       x2="112.49853"
       y1="6.1372099"
       x1="112.49854"
       gradientTransform="translate(287,-83)">
      <stop
         id="stop193"
         offset="0"
         style="stop-color:#ffffff;stop-opacity:0" />
      <stop
         id="stop195"
         offset="1"
         style="stop-color:#ffffff;stop-opacity:0.27450982;" />
      <midPointStop
         id="midPointStop197"
         style="stop-color:#FFFFFF"
         offset="0" />
      <midPointStop
         id="midPointStop199"
         style="stop-color:#FFFFFF"
         offset="0.5" />
      <midPointStop
         id="midPointStop201"
         style="stop-color:#000000"
         offset="1" />
    </linearGradient>
    <linearGradient
       id="linearGradient3388">
      <stop
         style="stop-color:#000000;stop-opacity:0;"
         offset="0"
         id="stop3390" />
      <stop
         style="stop-color:#000000;stop-opacity:0.37113401;"
         offset="1"
         id="stop3392" />
    </linearGradient>
    <linearGradient
       inkscape:collect="always"
       id="linearGradient4346">
      <stop
         style="stop-color:#00bdec;stop-opacity:1"
         offset="0"
         id="stop4348" />
      <stop
         style="stop-color:#40bfde;stop-opacity:1"
         offset="1"
         id="stop4350" />
    </linearGradient>
    <linearGradient
       inkscape:collect="always"
       xlink:href="#linearGradient4346"
       id="linearGradient4352"
       x1="400.6142"
       y1="634.15063"
       x2="616.48553"
       y2="666.97791"
       gradientUnits="userSpaceOnUse" />
    <linearGradient
       inkscape:collect="always"
       id="linearGradient5323">
      <stop
         style="stop-color:#6e6e6e;stop-opacity:1"
         offset="0"
         id="stop5325" />
      <stop
         style="stop-color:#4d4d4d;stop-opacity:1"
         offset="1"
         id="stop5327" />
    </linearGradient>
    <linearGradient
       inkscape:collect="always"
       xlink:href="#linearGradient5323"
       id="linearGradient5329"
       x1="291.83591"
       y1="238.08237"
       x2="650.81366"
       y2="348.96875"
       gradientUnits="userSpaceOnUse" />
    <linearGradient
       inkscape:collect="always"
       xlink:href="#linearGradient3388"
       id="linearGradient2231"
       gradientUnits="userSpaceOnUse"
       gradientTransform="matrix(0.6551957,0,0,0.6551957,-113.28394,148.38658)"
       x1="490.72305"
       y1="237.72447"
       x2="490.72305"
       y2="183.9644" />
    <linearGradient
       inkscape:collect="always"
       xlink:href="#path1082_2_"
       id="linearGradient2261"
       gradientUnits="userSpaceOnUse"
       gradientTransform="matrix(-0.6710118,0,0,0.6709741,706.10281,-117.5032)"
       x1="541.33502"
       y1="104.50665"
       x2="606.91248"
       y2="303.14029" />
    <linearGradient
       inkscape:collect="always"
       xlink:href="#path1082_2_"
       id="linearGradient2198"
       gradientUnits="userSpaceOnUse"
       gradientTransform="matrix(-0.6710118,0,0,0.6709741,901.93156,-57.609066)"
       x1="541.33502"
       y1="104.50665"
       x2="606.91248"
       y2="303.14029" />
    <linearGradient
       y2="666.97791"
       x2="616.48553"
       y1="634.15063"
       x1="400.6142"
       gradientUnits="userSpaceOnUse"
       id="linearGradient2493"
       xlink:href="#linearGradient4346"
       inkscape:collect="always" />
    <linearGradient
       gradientUnits="userSpaceOnUse"
       y2="666.97791"
       x2="616.48553"
       y1="634.15063"
       x1="400.6142"
       id="linearGradient2467"
       xlink:href="#linearGradient4346"
       inkscape:collect="always" />
    <linearGradient
       id="linearGradient2461">
      <stop
         id="stop2463"
         offset="0"
         style="stop-color:#26a7e8;stop-opacity:1;" />
      <stop
         id="stop2465"
         offset="1"
         style="stop-color:#3ab0ea;stop-opacity:1;" />
    </linearGradient>
    <linearGradient
       id="linearGradient2454">
      <stop
         id="stop2456"
         offset="0"
         style="stop-color:#000000;stop-opacity:0;" />
      <stop
         id="stop2458"
         offset="1"
         style="stop-color:#000000;stop-opacity:0.37113401;" />
    </linearGradient>
    <linearGradient
       y2="303.14029"
       x2="606.91248"
       y1="104.50665"
       x1="541.33502"
       gradientTransform="matrix(-0.3937741,0,0,0.393752,357.51969,122.00151)"
       gradientUnits="userSpaceOnUse"
       id="linearGradient2544"
       xlink:href="#path1082_2_"
       inkscape:collect="always" />
    <linearGradient
       gradientTransform="translate(287,-83)"
       x1="112.49854"
       y1="6.1372099"
       x2="112.49853"
       y2="129.3468"
       id="linearGradient2441"
       gradientUnits="userSpaceOnUse">
      <stop
         style="stop-color:#ffffff;stop-opacity:0"
         offset="0"
         id="stop2443" />
      <stop
         style="stop-color:#ffffff;stop-opacity:0.27450982;"
         offset="1"
         id="stop2445" />
      <midPointStop
         offset="0"
         style="stop-color:#FFFFFF"
         id="midPointStop2447" />
      <midPointStop
         offset="0.5"
         style="stop-color:#FFFFFF"
         id="midPointStop2449" />
      <midPointStop
         offset="1"
         style="stop-color:#000000"
         id="midPointStop2451" />
    </linearGradient>
    <linearGradient
       inkscape:collect="always"
       xlink:href="#linearGradient5323"
       id="linearGradient3885"
       gradientUnits="userSpaceOnUse"
       x1="291.83591"
       y1="238.08237"
       x2="650.81366"
       y2="348.96875" />
    <linearGradient
       inkscape:collect="always"
       xlink:href="#linearGradient4346"
       id="linearGradient3887"
       gradientUnits="userSpaceOnUse"
       x1="400.6142"
       y1="634.15063"
       x2="616.48553"
       y2="666.97791" />
    <linearGradient
       inkscape:collect="always"
       xlink:href="#linearGradient5323"
       id="linearGradient3909"
       gradientUnits="userSpaceOnUse"
       x1="291.83591"
       y1="238.08237"
       x2="650.81366"
       y2="348.96875" />
    <linearGradient
       inkscape:collect="always"
       xlink:href="#linearGradient4346"
       id="linearGradient3919"
       gradientUnits="userSpaceOnUse"
       x1="400.6142"
       y1="634.15063"
       x2="616.48553"
       y2="666.97791" />
    <linearGradient
       inkscape:collect="always"
       xlink:href="#linearGradient3388"
       id="linearGradient3945"
       gradientUnits="userSpaceOnUse"
       gradientTransform="matrix(0.562301,0,0,0.562301,11.327323,189.9388)"
       x1="490.72305"
       y1="237.72447"
       x2="490.72305"
       y2="183.9644" />
    <linearGradient
       inkscape:collect="always"
       xlink:href="#linearGradient5323"
       id="linearGradient3970"
       gradientUnits="userSpaceOnUse"
       x1="291.83591"
       y1="238.08237"
       x2="650.81366"
       y2="348.96875" />
    <linearGradient
       inkscape:collect="always"
       xlink:href="#linearGradient5323"
       id="linearGradient3972"
       gradientUnits="userSpaceOnUse"
       x1="291.83591"
       y1="238.08237"
       x2="650.81366"
       y2="348.96875" />
    <linearGradient
       inkscape:collect="always"
       xlink:href="#linearGradient5323"
       id="linearGradient3974"
       gradientUnits="userSpaceOnUse"
       x1="291.83591"
       y1="238.08237"
       x2="650.81366"
       y2="348.96875" />
    <linearGradient
       inkscape:collect="always"
       xlink:href="#linearGradient5323"
       id="linearGradient3976"
       gradientUnits="userSpaceOnUse"
       x1="291.83591"
       y1="238.08237"
       x2="650.81366"
       y2="348.96875" />
    <linearGradient
       inkscape:collect="always"
       xlink:href="#linearGradient5323"
       id="linearGradient3978"
       gradientUnits="userSpaceOnUse"
       x1="291.83591"
       y1="238.08237"
       x2="650.81366"
       y2="348.96875" />
  </defs>
  <sodipodi:namedview
     id="base"
     pagecolor="#ffffff"
     bordercolor="#666666"
     borderopacity="1.0"
     gridtolerance="10000"
     guidetolerance="10"
     objecttolerance="10"
     inkscape:pageopacity="0.0"
     inkscape:pageshadow="2"
     inkscape:zoom="1"
     inkscape:cx="182.5"
     inkscape:cy="137.5"
     inkscape:document-units="px"
     inkscape:current-layer="layer1"
     inkscape:window-width="1034"
     inkscape:window-height="978"
     inkscape:window-x="363"
     inkscape:window-y="24"
     showguides="true"
     inkscape:guide-bbox="true"
     width="365px"
     height="275px"
     showgrid="false" />
  <metadata
     id="metadata2429">
    <rdf:RDF>
      <cc:Work
         rdf:about="">
        <dc:format>image/svg+xml</dc:format>
        <dc:type
           rdf:resource="http://purl.org/dc/dcmitype/StillImage" />
      </cc:Work>
    </rdf:RDF>
  </metadata>
  <g
     inkscape:label="Layer 1"
     inkscape:groupmode="layer"
     id="layer1"
     transform="translate(-195.82871,-53.894133)">
    <path
       id="path2518"
       d="M 381.05613,59.896151 C 372.29255,81.382091 367.00071,95.455159 357.24362,116.3024 C 363.22595,122.64366 370.56861,129.99332 382.49363,138.33365 C 369.67305,133.05806 360.93531,127.79866 354.39987,122.3024 C 341.91267,148.35888 322.32002,185.43584 282.61862,256.77116 C 313.81697,238.7598 338.01682,227.66695 360.55612,223.42741 C 359.58897,219.26563 359.05002,214.74918 359.08737,210.05241 L 359.11862,209.08366 C 359.61377,189.09211 370.01807,173.69607 382.33738,174.73991 C 394.65669,175.78373 404.23875,192.87336 403.74362,212.86491 C 403.6505,216.62463 403.23428,220.22884 402.49363,223.58366 C 424.78326,227.94954 448.72546,239.00814 479.49363,256.77116 C 473.42407,245.59666 467.97974,235.55215 462.80613,225.95866 C 454.65685,219.64241 446.17599,211.42048 428.83738,202.52116 C 440.75495,205.61785 449.31122,209.18394 455.96238,213.17741 C 403.36077,115.24237 399.0944,102.22683 381.05613,59.896151 z "
       style="fill:#1793d1;fill-opacity:1;fill-rule:evenodd;stroke:none;stroke-width:1;stroke-linecap:round;stroke-linejoin:round;stroke-miterlimit:10;stroke-dasharray:none;stroke-opacity:1" />
    <path
       style="fill:#ffffff;fill-opacity:0.16568047;fill-rule:evenodd;stroke:none;stroke-width:36.09999847;stroke-linecap:butt;stroke-linejoin:round;stroke-miterlimit:10;stroke-opacity:1"
       d="M 436.47589,176.91624 C 393.80206,118.99555 383.91072,72.31324 381.40528,61.168126 C 404.16874,113.67293 404.01326,114.3168 436.47589,176.91624 z "
       id="path2522"
       sodipodi:nodetypes="ccc" />
    <text
       xml:space="preserve"
       style="font-size:6.10690928px;font-style:normal;font-weight:normal;fill:#87cdde;fill-opacity:1;stroke:none;stroke-width:1px;stroke-linecap:butt;stroke-linejoin:miter;stroke-opacity:1;font-family:DejaVu Sans Mono"
       x="475.51663"
       y="242.00311"
       id="text2638"><tspan
         sodipodi:role="line"
         id="tspan2640"
         x="475.51663"
         y="242.00311">TM</tspan></text>
    <path
       id="path2520"
       d="M 381.42247,60.769131 C 380.3327,63.44822 379.27333,66.045063 378.26622,68.519134 C 377.14589,71.271232 376.04383,73.912087 374.98497,76.487884 C 373.92619,79.063717 372.90027,81.569266 371.85996,84.050385 C 370.8196,86.531619 369.7686,88.988456 368.70371,91.456635 C 367.63889,93.924718 366.55479,96.420046 365.42246,98.956635 C 364.29013,101.49331 363.13395,104.08237 361.89121,106.76913 C 360.64839,109.45592 359.31859,112.22574 357.92247,115.14413 C 357.73388,115.53833 357.52055,115.99487 357.32871,116.39413 C 363.29497,122.71402 370.61874,130.03243 382.48496,138.33164 C 369.68579,133.06485 360.95433,127.81793 354.42246,122.33164 C 354.0829,123.02485 353.80355,123.65303 353.45371,124.36289 C 352.70207,125.88811 351.84991,127.59833 351.04747,129.20664 C 344.8883,141.76248 337.02765,156.97111 326.42246,176.80039 C 351.39002,162.73269 378.3473,142.458 427.26621,159.92539 C 424.81336,155.27973 422.54026,150.92771 420.42247,146.83164 C 418.3047,142.73544 416.34321,138.89649 414.51622,135.26914 C 412.68937,131.64185 411.0026,128.22723 409.42247,124.98789 C 407.84235,121.74861 406.36239,118.67019 404.98497,115.73788 C 403.60746,112.80564 402.32885,110.00645 401.10997,107.30038 C 399.89099,104.59435 398.74581,101.98601 397.64121,99.425385 C 396.53651,96.864629 395.45678,94.358905 394.42246,91.862884 C 393.38807,89.366791 392.39936,86.875297 391.39121,84.362884 C 391.04492,83.500071 390.67539,82.60902 390.32871,81.737884 C 387.55511,75.230394 384.71185,68.496318 381.42247,60.769131 z "
       style="fill:url(#linearGradient2198);fill-opacity:1;fill-rule:evenodd;stroke:none;stroke-width:0.71416688;stroke-linecap:round;stroke-linejoin:round;stroke-miterlimit:10;stroke-dasharray:none;stroke-opacity:1" />
    <g
       id="g2498"
       transform="matrix(0.4787947,0,0,0.4787947,65.3323,122.93044)"
       style="fill:url(#linearGradient3970);fill-opacity:1">
      <path
         id="path2500"
         d="M 339.96875,309.09375 C 325.49734,309.06987 313.48755,312.03742 308.84375,313.65625 L 304.0625,339.46875 C 304.05087,339.56384 327.85793,333.1202 338.34375,333.5 C 355.70533,334.12381 357.30323,340.13541 357,348.25 C 357.29595,348.72462 352.52067,340.91808 337.5,340.65625 C 318.55039,340.32938 291.80716,347.36572 291.84375,375.96875 C 291.33289,408.14287 315.87736,417.60757 332.59375,417.78125 C 347.62196,417.50761 354.67145,412.08989 358.53125,409.1875 C 363.60249,403.88514 369.40433,398.55303 374.9375,392.15625 C 369.70183,401.66903 365.16278,408.24605 360.4375,413.28125 L 360.4375,417.53125 L 383.28125,413.6875 L 383.4375,351.59375 C 383.20609,342.80536 388.47873,309.17548 339.96875,309.09375 z M 336.6875,363.15625 C 346.15639,363.2862 357.01538,367.95333 357.03125,379.1875 C 357.08027,389.40571 344.2312,394.89933 335.875,394.8125 C 327.51524,394.72573 316.42407,388.24268 316.375,378.28125 C 316.53516,369.37681 326.83453,362.92707 336.6875,363.15625 z "
         style="fill:url(#linearGradient3972);fill-opacity:1;fill-rule:evenodd;stroke:none;stroke-width:0.5;stroke-miterlimit:4;stroke-dasharray:none;stroke-opacity:1" />
      <path
         style="fill:url(#linearGradient3974);fill-opacity:1;fill-rule:evenodd;stroke:none;stroke-width:0.5;stroke-miterlimit:4;stroke-dasharray:none;stroke-opacity:1"
         d="M 398.50106,314.83145 L 398.34601,417.65838 L 424.95814,412.53114 L 425.003,354.22957 C 425.00936,345.54868 437.40854,335.40506 452.9657,335.5667 C 456.26772,329.59262 462.4744,314.32451 463.98658,310.85156 C 429.23009,310.76831 428.78761,320.84149 422.7426,325.79673 C 422.67951,316.34388 422.72126,310.66932 422.72126,310.66932 L 398.50106,314.83145 z "
         id="path2502"
         inkscape:export-filename="/home/thayer/linux/artwork-arch/sample-hangar2.png"
         inkscape:export-xdpi="90"
         inkscape:export-ydpi="90" />
      <path
         style="fill:url(#linearGradient3976);fill-opacity:1;fill-rule:evenodd;stroke:none;stroke-width:0.5;stroke-miterlimit:4;stroke-dasharray:none;stroke-opacity:1"
         d="M 548.2688,328.33058 C 548.01184,328.2099 534.38942,312.39639 507.00242,312.27168 C 481.34993,311.8453 452.57664,321.79063 452.11611,364.80448 C 452.34068,402.623 479.75631,417.40257 507.14751,417.69075 C 536.46043,417.99526 548.12405,399.36128 548.82366,398.89951 C 545.32604,395.86741 532.22574,382.88641 532.22574,382.88641 C 532.22574,382.88641 524.04338,394.53743 508.16772,394.68554 C 492.2883,394.83674 478.48527,382.41229 478.28967,365.07649 C 478.08618,347.74054 490.97848,338.34828 508.28692,337.58962 C 523.27158,337.58641 531.91662,347.26296 531.91662,347.26296 L 548.2688,328.33058 z "
         id="path2504"
         inkscape:export-filename="/home/thayer/linux/artwork-arch/sample-hangar2.png"
         inkscape:export-xdpi="90"
         inkscape:export-ydpi="90"
         sodipodi:nodetypes="ccccccccccc" />
      <path
         id="path2506"
         d="M 581.8125,278.84375 L 556.6875,284.75 L 556.875,418.6875 L 581.625,414.21875 L 581.90625,351.1875 C 581.95916,344.57823 591.46752,334.42834 607.34375,334.75 C 622.52348,334.90775 625.91611,344.86767 625.875,346.125 L 626.3125,419.09375 L 650.71875,414.78125 L 650.8125,337.40625 C 650.9732,329.96086 634.50417,314.23671 608.03125,314.125 C 595.45038,314.14524 588.4831,316.99325 584.9375,319.09375 C 578.87094,323.7794 571.9377,328.26918 565.125,334 C 571.42309,325.90901 576.71051,320.31484 581.875,316.15625 L 581.8125,278.84375 z "
         style="fill:url(#linearGradient3978);fill-opacity:1;fill-rule:evenodd;stroke:none;stroke-width:0.5;stroke-miterlimit:4;stroke-dasharray:none;stroke-opacity:1" />
    </g>
    <g
       id="g2508"
       style="fill:#56b0dd;fill-opacity:1;stroke:none;stroke-width:0.5;stroke-miterlimit:4;stroke-dasharray:none;stroke-opacity:1"
       transform="matrix(0.7088464,0,1.0030984e-2,0.7088464,96.75298,-188.32526)">
      <path
         style="fill:#56b0dd;fill-opacity:1;fill-rule:evenodd;stroke:none;stroke-width:0.5;stroke-miterlimit:4;stroke-dasharray:none;stroke-opacity:1"
         d="M 400.67581,629.79609 L 408.35748,627.88034 L 407.42897,719.08826 L 399.63323,720.41252 L 400.67581,629.79609 z "
         id="path2510"
         inkscape:export-filename="/home/thayer/linux/artwork-arch/sample-hangar2.png"
         inkscape:export-xdpi="90"
         inkscape:export-ydpi="90" />
      <path
         style="fill:#56b0dd;fill-opacity:1;fill-rule:evenodd;stroke:none;stroke-width:0.5;stroke-miterlimit:4;stroke-dasharray:none;stroke-opacity:1"
         d="M 421.10266,657.01757 L 427.8533,654.03087 L 426.98522,719.43018 L 420.48743,720.76933 L 421.10266,657.01757 z M 419.84207,633.43441 L 425.31374,629.01908 L 429.73635,634.0186 L 424.26077,638.55081 L 419.84207,633.43441 z "
         id="path2512"
         inkscape:export-filename="/home/thayer/linux/artwork-arch/sample-hangar2.png"
         inkscape:export-xdpi="90"
         inkscape:export-ydpi="90" />
      <path
         style="fill:#56b0dd;fill-opacity:1;fill-rule:evenodd;stroke:none;stroke-width:0.5;stroke-miterlimit:4;stroke-dasharray:none;stroke-opacity:1"
         d="M 440.44273,655.82614 L 448.12028,654.26413 L 447.96298,667.93633 C 447.95623,668.5235 452.38238,652.66269 472.648,653.01539 C 492.32786,653.12491 495.33201,668.36173 495.1771,671.77776 L 494.73951,719.85606 L 488.00907,721.31237 L 488.64223,673.82337 C 488.73965,672.43653 485.76079,660.70896 471.85317,660.66583 C 457.94808,660.62546 448.16953,670.76631 448.09496,677.2452 L 447.61369,719.07997 L 439.80981,721.11127 L 440.44273,655.82614 z "
         id="path2514"
         inkscape:export-filename="/home/thayer/linux/artwork-arch/sample-hangar2.png"
         inkscape:export-xdpi="90"
         inkscape:export-ydpi="90" />
      <path
         style="fill:#56b0dd;fill-opacity:1;fill-rule:evenodd;stroke:none;stroke-width:0.5;stroke-miterlimit:4;stroke-dasharray:none;stroke-opacity:1"
         d="M 561.53301,720.20203 L 553.85541,721.76389 L 554.01278,708.09191 C 554.01954,707.50449 549.59077,723.36552 529.32774,723.01277 C 509.64791,722.90333 506.64375,707.66651 506.79866,704.25048 L 507.23623,656.17187 L 515.39297,654.52961 L 514.84653,702.01949 C 514.83161,703.31631 516.21498,715.31928 530.12257,715.36209 C 544.02768,715.40254 553.88879,706.9885 554.1371,694.31793 L 554.56815,656.84891 L 562.16595,654.91696 L 561.53301,720.20203 z "
         id="path2516"
         inkscape:export-filename="/home/thayer/linux/artwork-arch/sample-hangar2.png"
         inkscape:export-xdpi="90"
         inkscape:export-ydpi="90" />
      <path
         style="fill:#56b0dd;fill-opacity:1;fill-rule:evenodd;stroke:none;stroke-width:0.5;stroke-miterlimit:4;stroke-dasharray:none;stroke-opacity:1"
         d="M 577.45461,655.28678 L 572.02746,659.48695 L 592.2264,686.42023 L 569.83548,717.53645 L 575.47047,721.76245 L 596.51412,692.86575 L 617.39202,722.44734 L 622.71929,718.24631 L 600.34351,686.61765 L 618.91314,661.04015 L 613.38121,656.30586 L 596.46012,679.97364 L 577.45461,655.28678 z "
         id="path2519"
         inkscape:export-filename="/home/thayer/linux/artwork-arch/sample-hangar2.png"
         inkscape:export-xdpi="90"
         inkscape:export-ydpi="90" />
    </g>
    <path
       style="opacity:0.5;fill:url(#linearGradient3945);fill-opacity:1;fill-rule:evenodd;stroke:none;stroke-width:0.5;stroke-miterlimit:4;stroke-opacity:1"
       d="M 226.30182,293.40217 C 220.49614,293.5164 214.04201,294.14396 206.65648,295.52839 C 205.65405,297.57624 205.07127,300.02145 205.07502,302.94369 C 204.83033,318.34847 216.55846,322.87482 224.56226,322.95807 C 233.09629,322.80265 236.30089,319.15608 237.89928,318.19599 L 237.91691,322.85256 L 248.8466,321.00755 L 248.89928,295.24719 C 242.14458,294.17419 234.95592,293.23174 226.30182,293.40217 z M 331.92649,295.0012 L 331.96169,323.39737 L 343.82267,321.25353 L 343.92822,297.18016 C 339.67285,296.52913 335.70825,295.74128 331.92649,295.0012 z M 294.51906,295.15616 C 289.93989,296.4191 285.70943,297.1946 281.80427,297.63932 C 281.92905,315.72001 295.0457,322.78503 308.15179,322.92288 C 322.18657,323.0687 327.7784,314.14725 328.11343,313.92616 C 326.43876,312.47432 320.16055,306.25955 320.16055,306.25955 C 320.16055,306.25955 316.24497,311.83271 308.64376,311.90356 C 301.04073,311.97591 294.42903,306.02514 294.33553,297.7248 C 294.32018,296.83242 294.38934,295.97921 294.51906,295.15616 z M 256.10376,296.40694 L 256.05108,322.90534 L 268.80832,320.44524 L 268.82584,297.9357 C 264.47182,297.66526 260.30123,297.08523 256.10376,296.40694 z M 226.53033,296.81105 C 231.06387,296.87325 236.2751,299.11109 236.28263,304.49001 C 236.30607,309.38241 230.16216,312.01723 226.16121,311.97559 C 222.15862,311.93411 216.83661,308.82019 216.81301,304.05075 C 216.88975,299.78726 221.81272,296.70132 226.53033,296.81105 z M 376.91057,298.07616 C 372.72623,298.51612 368.78343,298.7247 365.04954,298.76159 L 365.20767,323.59068 L 376.89297,321.51712 L 376.91057,298.07616 z "
       id="path17137"
       sodipodi:nodetypes="cccccccccccccccccccccccccccccsccccccc" />
    <path
       style="opacity:0.7;fill:#1793d1;fill-opacity:1;fill-rule:evenodd;stroke:none;stroke-width:0.5;stroke-miterlimit:4;stroke-opacity:1"
       d="M 421.20936,291.13543 C 419.27241,291.21741 417.39803,291.3226 415.60389,291.45167 L 415.74453,322.83508 L 421.26204,321.3941 L 421.17415,291.73277 C 421.17377,291.53806 421.18556,291.33879 421.20936,291.13543 z M 449.88662,291.38138 L 449.90416,322.97559 L 454.66637,321.93891 L 454.50808,291.64501 C 452.96436,291.54811 451.42094,291.45908 449.88662,291.38138 z M 462.9778,292.25997 L 463.06569,310.88611 C 462.99003,313.3076 465.26318,324.11052 479.21432,324.18806 C 493.58106,324.43813 496.55639,313.19339 496.55746,313.60989 L 496.59283,323.29189 L 502.0224,322.18492 L 501.91702,297.74241 C 500.16562,297.49465 498.35298,297.19018 496.50493,296.84625 L 496.52242,303.83986 C 496.47341,312.8213 489.56317,318.78714 479.70636,318.75839 C 469.84737,318.72805 468.74356,310.22387 468.74144,309.3047 L 468.70607,292.78716 C 466.80516,292.59616 464.89514,292.42274 462.9778,292.25997 z M 406.60711,292.40053 C 404.91014,292.65063 403.33402,292.92832 401.91541,293.24394 L 402.03839,322.58899 L 406.64226,321.64012 L 406.60711,292.40053 z M 392.65496,295.4932 C 390.79322,295.90058 388.96957,296.26007 387.19013,296.58264 L 387.26042,322.34301 L 392.77794,321.3941 L 392.67256,295.4932 C 392.66703,295.49441 392.66055,295.49198 392.65496,295.4932 z M 529.45215,298.00603 C 527.48994,298.28611 525.39363,298.50834 523.14394,298.65606 L 507.87399,320.30464 L 511.91529,323.29189 L 526.53531,302.80308 L 541.62943,323.78395 L 545.37208,320.79676 L 529.18847,298.37497 L 529.45215,298.00603 z "
       id="path17147" />
    <text
       xml:space="preserve"
       style="font-size:6.33634138px;font-style:normal;font-weight:normal;fill:#87cdde;fill-opacity:1;stroke:none;stroke-width:1px;stroke-linecap:butt;stroke-linejoin:miter;stroke-opacity:1;font-family:DejaVu Sans Mono"
       x="550.83258"
       y="319.34351"
       id="text2529"><tspan
         sodipodi:role="line"
         id="tspan2531"
         x="550.83258"
         y="319.34351">TM</tspan></text>
  </g>
</svg>
