<?xml version="1.0" encoding="UTF-8" standalone="no"?>
<!-- Created with Inkscape (http://www.inkscape.org/) -->
<svg
   xmlns:dc="http://purl.org/dc/elements/1.1/"
   xmlns:cc="http://creativecommons.org/ns#"
   xmlns:rdf="http://www.w3.org/1999/02/22-rdf-syntax-ns#"
   xmlns:svg="http://www.w3.org/2000/svg"
   xmlns="http://www.w3.org/2000/svg"
   xmlns:xlink="http://www.w3.org/1999/xlink"
   xmlns:sodipodi="http://sodipodi.sourceforge.net/DTD/sodipodi-0.dtd"
   xmlns:inkscape="http://www.inkscape.org/namespaces/inkscape"
   width="127.99993"
   height="126.93807"
   id="svg2488"
   sodipodi:version="0.32"
   inkscape:version="0.46"
   sodipodi:docbase="/home/thayer/tmp/archlinux-logo-contest/archer/masters"
   sodipodi:docname="archlinux-wm-gnome.svg"
   inkscape:output_extension="org.inkscape.output.svg.inkscape"
   version="1.0">
  <defs
     id="defs2490">
    <inkscape:perspective
       sodipodi:type="inkscape:persp3d"
       inkscape:vp_x="0 : 63.469036 : 1"
       inkscape:vp_y="0 : 1000 : 0"
       inkscape:vp_z="127.99993 : 63.469036 : 1"
       inkscape:persp3d-origin="63.999966 : 42.312691 : 1"
       id="perspective36" />
    <linearGradient
       inkscape:collect="always"
       xlink:href="#path1082_2_"
       id="linearGradient2200"
       gradientUnits="userSpaceOnUse"
       gradientTransform="matrix(-0.2652793,0,0,0.2630673,325.28924,132.0642)"
       x1="541.33502"
       y1="104.50665"
       x2="606.91248"
       y2="303.14029" />
    <linearGradient
       inkscape:collect="always"
       xlink:href="#path1082_2_"
       id="linearGradient16260"
       gradientUnits="userSpaceOnUse"
       gradientTransform="matrix(-0.2655026,0,0,0.2652645,410.96414,745.53758)"
       x1="541.33502"
       y1="104.50665"
       x2="606.91248"
       y2="303.14029" />
    <linearGradient
       inkscape:collect="always"
       xlink:href="#path1082_2_"
       id="linearGradient14312"
       gradientUnits="userSpaceOnUse"
       gradientTransform="matrix(-0.2655026,0,0,0.2652645,410.96414,745.53758)"
       x1="541.33502"
       y1="104.50665"
       x2="606.91248"
       y2="303.14029" />
    <linearGradient
       inkscape:collect="always"
       xlink:href="#path1082_2_"
       id="linearGradient12330"
       gradientUnits="userSpaceOnUse"
       gradientTransform="matrix(-0.2655026,0,0,0.2652645,410.96414,745.53758)"
       x1="541.33502"
       y1="104.50665"
       x2="606.91248"
       y2="303.14029" />
    <linearGradient
       inkscape:collect="always"
       xlink:href="#path1082_2_"
       id="linearGradient3457"
       gradientUnits="userSpaceOnUse"
       gradientTransform="matrix(0.265284,0,0,0.263072,63.728962,131.00373)"
       x1="541.33502"
       y1="104.50665"
       x2="606.91248"
       y2="303.14029" />
    <linearGradient
       inkscape:collect="always"
       xlink:href="#path1082_2_"
       id="linearGradient7399"
       gradientUnits="userSpaceOnUse"
       gradientTransform="matrix(-0.2655026,0,0,0.2652645,410.96414,745.53758)"
       x1="541.33502"
       y1="104.50665"
       x2="606.91248"
       y2="303.14029" />
    <linearGradient
       inkscape:collect="always"
       xlink:href="#path1082_2_"
       id="linearGradient8412"
       gradientUnits="userSpaceOnUse"
       gradientTransform="matrix(-0.2655026,0,0,0.2652645,410.96414,745.53758)"
       x1="541.33502"
       y1="104.50665"
       x2="606.91248"
       y2="303.14029" />
    <linearGradient
       gradientUnits="userSpaceOnUse"
       id="path1082_2_"
       y2="129.3468"
       x2="112.49853"
       y1="6.1372099"
       x1="112.49854"
       gradientTransform="translate(287,-83)">
      <stop
         id="stop193"
         offset="0"
         style="stop-color:#ffffff;stop-opacity:0" />
      <stop
         id="stop195"
         offset="1"
         style="stop-color:#ffffff;stop-opacity:0.27218935" />
      <midPointStop
         id="midPointStop197"
         style="stop-color:#FFFFFF"
         offset="0" />
      <midPointStop
         id="midPointStop199"
         style="stop-color:#FFFFFF"
         offset="0.5" />
      <midPointStop
         id="midPointStop201"
         style="stop-color:#000000"
         offset="1" />
    </linearGradient>
    <linearGradient
       inkscape:collect="always"
       xlink:href="#path1082_2_"
       id="linearGradient13315"
       gradientUnits="userSpaceOnUse"
       gradientTransform="matrix(-0.2655026,0,0,0.2652645,410.96414,745.53758)"
       x1="541.33502"
       y1="104.50665"
       x2="606.91248"
       y2="303.14029" />
    <linearGradient
       inkscape:collect="always"
       xlink:href="#path1082_2_"
       id="linearGradient2250"
       gradientUnits="userSpaceOnUse"
       gradientTransform="matrix(-0.2655026,0,0,0.2652645,410.96414,745.53758)"
       x1="541.33502"
       y1="104.50665"
       x2="606.91248"
       y2="303.14029" />
    <linearGradient
       inkscape:collect="always"
       xlink:href="#path1082_2_"
       id="linearGradient3094"
       gradientUnits="userSpaceOnUse"
       gradientTransform="matrix(-0.2655026,0,0,0.2652645,410.96414,745.53758)"
       x1="541.33502"
       y1="104.50665"
       x2="606.91248"
       y2="303.14029" />
    <linearGradient
       inkscape:collect="always"
       xlink:href="#path1082_2_"
       id="linearGradient2197"
       gradientUnits="userSpaceOnUse"
       gradientTransform="matrix(-0.2655026,0,0,0.2652645,410.96414,745.53758)"
       x1="541.33502"
       y1="104.50665"
       x2="606.91248"
       y2="303.14029" />
    <linearGradient
       inkscape:collect="always"
       xlink:href="#path1082_2_"
       id="linearGradient2201"
       gradientUnits="userSpaceOnUse"
       gradientTransform="matrix(-0.2652793,0,0,0.2630673,345.28924,132.0642)"
       x1="541.33502"
       y1="104.50665"
       x2="606.91248"
       y2="303.14029" />
    <linearGradient
       inkscape:collect="always"
       xlink:href="#path1082_2_"
       id="linearGradient2552"
       gradientUnits="userSpaceOnUse"
       gradientTransform="matrix(-0.2652793,0,0,0.2630673,207.89851,-12.45626)"
       x1="541.33502"
       y1="104.50665"
       x2="606.91248"
       y2="303.14029" />
  </defs>
  <sodipodi:namedview
     id="base"
     pagecolor="#ffffff"
     bordercolor="#666666"
     borderopacity="1.0"
     gridtolerance="10000"
     guidetolerance="10"
     objecttolerance="10"
     inkscape:pageopacity="0.0"
     inkscape:pageshadow="2"
     inkscape:zoom="1"
     inkscape:cx="78"
     inkscape:cy="49"
     inkscape:document-units="px"
     inkscape:current-layer="layer1"
     inkscape:window-width="1032"
     inkscape:window-height="978"
     inkscape:window-x="516"
     inkscape:window-y="24"
     showgrid="false" />
  <metadata
     id="metadata2493">
    <rdf:RDF>
      <cc:Work
         rdf:about="">
        <dc:format>image/svg+xml</dc:format>
        <dc:type
           rdf:resource="http://purl.org/dc/dcmitype/StillImage" />
      </cc:Work>
    </rdf:RDF>
  </metadata>
  <g
     inkscape:label="Layer 1"
     inkscape:groupmode="layer"
     id="layer1"
     transform="translate(-117.39073,-144.52046)">
    <path
       style="fill:#71c837;fill-opacity:1;fill-rule:evenodd;stroke:none;stroke-width:1;stroke-linecap:round;stroke-linejoin:round;stroke-miterlimit:10;stroke-dasharray:none;stroke-opacity:1"
       d="M 64 0 C 58.302599 13.85283 54.84331 22.93397 48.5 36.375 C 52.389231 40.463449 57.18475 45.18516 64.9375 50.5625 C 56.602546 47.161121 50.90508 43.7624 46.65625 40.21875 C 38.538019 57.018381 25.81081 80.94485 0 126.9375 C 21.888193 114.40573 38.472391 107.06693 54.125 104.875 C 48.061169 100.6248 43.919782 93.195284 45.25 87.28125 C 46.986535 79.55525 56.749285 75.517692 64.6875 75.25 C 70.11891 75.066843 74.70895 76.652732 75.28125 80.03125 C 76.97845 90.05069 51.21105 93.697689 60.90625 101.03125 C 63.95177 103.335 67.064748 101.57357 66.59375 98 C 66.20062 95.01864 77.138146 93.213108 76.28125 97.71875 C 75.769754 100.41243 74.24912 102.83745 72.25 104.6875 C 88.394206 106.58341 105.3596 113.97505 128 126.9375 C 124.05404 119.73286 120.51976 113.24781 117.15625 107.0625 C 111.85821 102.99017 106.33474 97.67523 95.0625 91.9375 C 102.81038 93.934038 108.36342 96.26901 112.6875 98.84375 C 78.489939 35.701222 75.7271 27.29224 64 0 z M 78.21875 58.3125 C 88.68661 58.3125 77.543908 73.125002 71.65625 73.125 C 65.76773 73.125 67.75132 58.312501 78.21875 58.3125 z M 62.03125 60.125 C 67.183922 60.142639 63.881071 71.465523 60.84375 71.28125 C 57.70718 71.09104 55.609358 60.915858 61.5 60.15625 C 61.684149 60.132512 61.865035 60.124431 62.03125 60.125 z M 51.625 64.15625 C 55.499807 63.747666 55.238603 73.277162 52.75 73.78125 C 50.09762 74.31978 46.077862 66.316067 50.8125 64.375 C 51.108361 64.253709 51.36668 64.183489 51.625 64.15625 z M 43.96875 70.4375 C 47.072359 69.977942 48.489595 77.897481 46.46875 78.78125 C 44.23886 79.75601 39.178659 73.476771 42.96875 70.875 C 43.324231 70.631124 43.647687 70.48504 43.96875 70.4375 z "
       transform="translate(117.39073,144.52046)"
       id="path8406" />
    <path
       style="fill:#ffffff;fill-opacity:0.16568047;fill-rule:evenodd;stroke:none;stroke-width:36.09999847;stroke-linecap:butt;stroke-linejoin:round;stroke-miterlimit:10;stroke-opacity:1"
       d="M 217.41656,219.96748 C 189.67329,182.62376 183.24269,152.52586 181.61386,145.34018 C 196.41291,179.19206 196.31183,179.6072 217.41656,219.96748 z "
       id="path8410"
       sodipodi:nodetypes="ccc" />
    <path
       style="fill:url(#linearGradient2552);fill-opacity:1;fill-rule:evenodd;stroke:none;stroke-width:0.71416687999999995;stroke-linecap:round;stroke-linejoin:round;stroke-miterlimit:10;stroke-dasharray:none;stroke-opacity:1"
       d="M 64.25 0.5625 C 63.54098 2.29111 62.84272 3.96626 62.1875 5.5625 C 61.45915 7.3368802 60.75089 9.02678 60.0625 10.6875 C 59.37417 12.34824 58.70758 13.96282 58.03125 15.5625 C 57.35487 17.16224 56.66106 18.75243 55.96875 20.34375 C 55.27649 21.93503 54.57991 23.55206 53.84375 25.1875 C 53.1076 26.823 52.33918 28.48649 51.53125 30.21875 C 50.72325 31.95101 49.87641 33.7434 48.96875 35.625 C 48.84403 35.883552 48.68941 36.17556 48.5625 36.4375 C 52.44132 40.512172 57.22313 45.21178 64.9375 50.5625 C 56.62402 47.169882 50.93276 43.78381 46.6875 40.25 C 46.46652 40.697402 46.29018 41.10435 46.0625 41.5625 C 45.23184 43.234132 44.30408 45.04296 43.375 46.875 C 43.14601 47.326552 42.95427 47.72517 42.71875 48.1875 C 42.59286 48.437992 42.4404 48.71506 42.3125 48.96875 C 38.6747 56.184332 34.21089 64.74981 28.5 75.34375 C 37.537387 70.291406 46.97664 64.010769 59.0625 61.375 C 59.645698 60.741253 60.439651 60.292984 61.5 60.15625 C 61.684149 60.132512 61.865035 60.124431 62.03125 60.125 C 62.641235 60.127088 63.143794 60.281387 63.53125 60.5625 C 66.375733 60.186556 69.372149 60.05576 72.53125 60.15625 C 74.020796 59.033784 75.911049 58.3125 78.21875 58.3125 C 81.24892 58.3125 82.47113 59.54867 82.53125 61.3125 C 86.149009 62.015586 89.976292 63.032846 94.03125 64.46875 C 92.43658 61.473508 90.97059 58.67216 89.59375 56.03125 C 88.21694 53.390282 86.93777 50.93246 85.75 48.59375 C 84.56233 46.255112 83.46479 44.05729 82.4375 41.96875 C 81.41023 39.880262 80.458 37.89058 79.5625 36 C 78.66694 34.109472 77.82368 32.30721 77.03125 30.5625 C 76.23877 28.81781 75.49937 27.11968 74.78125 25.46875 C 74.06306 23.81773 73.35993 22.20303 72.6875 20.59375 C 72.01501 18.98442 71.37417 17.4011 70.71875 15.78125 C 70.46523 15.15483 70.19143 14.5084 69.9375 13.875 C 68.16298 9.7430397 66.3532 5.4623 64.25 0.5625 z "
       transform="translate(117.39073,144.52046)"
       id="path8408" />
  </g>
</svg>
