<?xml version="1.0" encoding="UTF-8" standalone="no"?>
<!-- Created with Inkscape (http://www.inkscape.org/) -->
<svg
   xmlns:dc="http://purl.org/dc/elements/1.1/"
   xmlns:cc="http://web.resource.org/cc/"
   xmlns:rdf="http://www.w3.org/1999/02/22-rdf-syntax-ns#"
   xmlns:svg="http://www.w3.org/2000/svg"
   xmlns="http://www.w3.org/2000/svg"
   xmlns:xlink="http://www.w3.org/1999/xlink"
   xmlns:sodipodi="http://sodipodi.sourceforge.net/DTD/sodipodi-0.dtd"
   xmlns:inkscape="http://www.inkscape.org/namespaces/inkscape"
   width="128"
   height="128"
   id="svg2488"
   sodipodi:version="0.32"
   inkscape:version="0.45.1"
   sodipodi:docbase="/home/thayer/tmp/archlinux-logo-contest/archer/masters"
   sodipodi:docname="archlinux-mods-kde2.svg"
   inkscape:output_extension="org.inkscape.output.svg.inkscape"
   version="1.0">
  <defs
     id="defs2490">
    <linearGradient
       inkscape:collect="always"
       xlink:href="#path1082_2_"
       id="linearGradient2193"
       gradientUnits="userSpaceOnUse"
       gradientTransform="matrix(-0.2652794,0,0,0.2652645,207.89863,-12.5586)"
       x1="541.33502"
       y1="104.50665"
       x2="606.91248"
       y2="303.14029" />
    <linearGradient
       inkscape:collect="always"
       xlink:href="#path1082_2_"
       id="linearGradient2197"
       gradientUnits="userSpaceOnUse"
       gradientTransform="matrix(-0.2652794,0,0,0.2652645,207.89863,-12.5586)"
       x1="541.33502"
       y1="104.50665"
       x2="606.91248"
       y2="303.14029" />
    <linearGradient
       gradientUnits="userSpaceOnUse"
       id="path1082_2_"
       y2="129.3468"
       x2="112.49853"
       y1="6.1372099"
       x1="112.49854"
       gradientTransform="translate(287,-83)">
      <stop
         id="stop193"
         offset="0"
         style="stop-color:#ffffff;stop-opacity:0" />
      <stop
         id="stop195"
         offset="1"
         style="stop-color:#ffffff;stop-opacity:0.27218935" />
      <midPointStop
         id="midPointStop197"
         style="stop-color:#FFFFFF"
         offset="0" />
      <midPointStop
         id="midPointStop199"
         style="stop-color:#FFFFFF"
         offset="0.5" />
      <midPointStop
         id="midPointStop201"
         style="stop-color:#000000"
         offset="1" />
    </linearGradient>
    <linearGradient
       inkscape:collect="always"
       xlink:href="#path1082_2_"
       id="linearGradient2720"
       gradientUnits="userSpaceOnUse"
       gradientTransform="matrix(-0.2655026,0,0,0.2652645,410.96414,745.53758)"
       x1="541.33502"
       y1="104.50665"
       x2="606.91248"
       y2="303.14029" />
    <linearGradient
       inkscape:collect="always"
       xlink:href="#path1082_2_"
       id="linearGradient2722"
       gradientUnits="userSpaceOnUse"
       gradientTransform="matrix(-0.2655026,0,0,0.2652645,410.96414,745.53758)"
       x1="541.33502"
       y1="104.50665"
       x2="606.91248"
       y2="303.14029" />
    <linearGradient
       inkscape:collect="always"
       xlink:href="#path1082_2_"
       id="linearGradient2724"
       gradientUnits="userSpaceOnUse"
       gradientTransform="matrix(-0.2655026,0,0,0.2652645,410.96414,745.53758)"
       x1="541.33502"
       y1="104.50665"
       x2="606.91248"
       y2="303.14029" />
    <linearGradient
       inkscape:collect="always"
       xlink:href="#path1082_2_"
       id="linearGradient2726"
       gradientUnits="userSpaceOnUse"
       gradientTransform="matrix(0.265284,0,0,0.263072,63.728962,131.00373)"
       x1="541.33502"
       y1="104.50665"
       x2="606.91248"
       y2="303.14029" />
    <linearGradient
       inkscape:collect="always"
       xlink:href="#path1082_2_"
       id="linearGradient2728"
       gradientUnits="userSpaceOnUse"
       gradientTransform="matrix(-0.2655026,0,0,0.2652645,410.96414,745.53758)"
       x1="541.33502"
       y1="104.50665"
       x2="606.91248"
       y2="303.14029" />
    <linearGradient
       inkscape:collect="always"
       xlink:href="#path1082_2_"
       id="linearGradient2730"
       gradientUnits="userSpaceOnUse"
       gradientTransform="matrix(-0.2655026,0,0,0.2652645,410.96414,745.53758)"
       x1="541.33502"
       y1="104.50665"
       x2="606.91248"
       y2="303.14029" />
    <linearGradient
       inkscape:collect="always"
       xlink:href="#path1082_2_"
       id="linearGradient2732"
       gradientUnits="userSpaceOnUse"
       gradientTransform="matrix(-0.2655026,0,0,0.2652645,410.96414,745.53758)"
       x1="541.33502"
       y1="104.50665"
       x2="606.91248"
       y2="303.14029" />
    <linearGradient
       inkscape:collect="always"
       xlink:href="#path1082_2_"
       id="linearGradient2734"
       gradientUnits="userSpaceOnUse"
       gradientTransform="matrix(-0.2655026,0,0,0.2652645,410.96414,745.53758)"
       x1="541.33502"
       y1="104.50665"
       x2="606.91248"
       y2="303.14029" />
    <linearGradient
       inkscape:collect="always"
       xlink:href="#path1082_2_"
       id="linearGradient2736"
       gradientUnits="userSpaceOnUse"
       gradientTransform="matrix(-0.2655026,0,0,0.2652645,410.96414,745.53758)"
       x1="541.33502"
       y1="104.50665"
       x2="606.91248"
       y2="303.14029" />
    <linearGradient
       inkscape:collect="always"
       xlink:href="#path1082_2_"
       id="linearGradient2904"
       gradientUnits="userSpaceOnUse"
       gradientTransform="matrix(-0.2655026,0,0,0.2652645,410.96414,745.53758)"
       x1="541.33502"
       y1="104.50665"
       x2="606.91248"
       y2="303.14029" />
    <linearGradient
       inkscape:collect="always"
       xlink:href="#path1082_2_"
       id="linearGradient2906"
       gradientUnits="userSpaceOnUse"
       gradientTransform="matrix(-0.2655026,0,0,0.2652645,410.96414,745.53758)"
       x1="541.33502"
       y1="104.50665"
       x2="606.91248"
       y2="303.14029" />
    <linearGradient
       inkscape:collect="always"
       xlink:href="#path1082_2_"
       id="linearGradient2908"
       gradientUnits="userSpaceOnUse"
       gradientTransform="matrix(-0.2655026,0,0,0.2652645,410.96414,745.53758)"
       x1="541.33502"
       y1="104.50665"
       x2="606.91248"
       y2="303.14029" />
    <linearGradient
       inkscape:collect="always"
       xlink:href="#path1082_2_"
       id="linearGradient2910"
       gradientUnits="userSpaceOnUse"
       gradientTransform="matrix(-0.2655026,0,0,0.2652645,410.96414,745.53758)"
       x1="541.33502"
       y1="104.50665"
       x2="606.91248"
       y2="303.14029" />
    <linearGradient
       inkscape:collect="always"
       xlink:href="#path1082_2_"
       id="linearGradient2912"
       gradientUnits="userSpaceOnUse"
       gradientTransform="matrix(0.265284,0,0,0.263072,63.728962,131.00373)"
       x1="541.33502"
       y1="104.50665"
       x2="606.91248"
       y2="303.14029" />
    <linearGradient
       inkscape:collect="always"
       xlink:href="#path1082_2_"
       id="linearGradient2914"
       gradientUnits="userSpaceOnUse"
       gradientTransform="matrix(-0.2655026,0,0,0.2652645,410.96414,745.53758)"
       x1="541.33502"
       y1="104.50665"
       x2="606.91248"
       y2="303.14029" />
    <linearGradient
       inkscape:collect="always"
       xlink:href="#path1082_2_"
       id="linearGradient2916"
       gradientUnits="userSpaceOnUse"
       gradientTransform="matrix(-0.2655026,0,0,0.2652645,410.96414,745.53758)"
       x1="541.33502"
       y1="104.50665"
       x2="606.91248"
       y2="303.14029" />
    <linearGradient
       inkscape:collect="always"
       xlink:href="#path1082_2_"
       id="linearGradient2918"
       gradientUnits="userSpaceOnUse"
       gradientTransform="matrix(-0.2655026,0,0,0.2652645,410.96414,745.53758)"
       x1="541.33502"
       y1="104.50665"
       x2="606.91248"
       y2="303.14029" />
    <linearGradient
       inkscape:collect="always"
       xlink:href="#path1082_2_"
       id="linearGradient2188"
       gradientUnits="userSpaceOnUse"
       gradientTransform="matrix(-0.2652794,0,0,0.2652645,501.1464,488.04518)"
       x1="541.33502"
       y1="104.50665"
       x2="606.91248"
       y2="303.14029" />
  </defs>
  <sodipodi:namedview
     id="base"
     pagecolor="#ffffff"
     bordercolor="#666666"
     borderopacity="1.0"
     gridtolerance="10000"
     guidetolerance="10"
     objecttolerance="10"
     inkscape:pageopacity="0.0"
     inkscape:pageshadow="2"
     inkscape:zoom="1"
     inkscape:cx="64"
     inkscape:cy="64"
     inkscape:document-units="px"
     inkscape:current-layer="layer1"
     inkscape:window-width="636"
     inkscape:window-height="511"
     inkscape:window-x="1038"
     inkscape:window-y="16" />
  <metadata
     id="metadata2493">
    <rdf:RDF>
      <cc:Work
         rdf:about="">
        <dc:format>image/svg+xml</dc:format>
        <dc:type
           rdf:resource="http://purl.org/dc/dcmitype/StillImage" />
      </cc:Work>
    </rdf:RDF>
  </metadata>
  <g
     inkscape:label="Layer 1"
     inkscape:groupmode="layer"
     id="layer1"
     transform="translate(-293.24777,-500.60378)">
    <path
       style="fill:#1793d1;fill-opacity:1;fill-rule:evenodd;stroke:none;stroke-width:1;stroke-linecap:round;stroke-linejoin:round;stroke-miterlimit:10;stroke-dasharray:none;stroke-opacity:1"
       d="M 357.24777,500.60378 C 351.55036,514.57231 348.09108,523.73799 341.74777,537.29128 C 345.637,541.41388 350.43251,546.18153 358.18527,551.60378 C 349.85031,548.17399 344.15286,544.73953 339.90402,541.16628 C 331.78579,558.10623 319.0586,582.22698 293.24777,628.60378 C 315.44466,615.78913 332.1815,608.35245 348.02902,606.26003 C 347.71608,604.81115 347.22732,603.29983 346.93527,602.85378 C 346.44104,602.09882 342.77327,600.10378 341.87277,600.10378 C 341.67444,600.10378 340.20757,601.01726 338.62277,602.13503 C 337.03798,603.25282 335.58386,604.16628 335.40402,604.16628 C 334.96293,604.16628 331.59004,600.70972 331.59152,600.26003 C 331.59218,600.06378 332.25563,598.9088 333.06027,597.69753 C 335.41036,594.15972 335.48767,593.8617 334.56027,591.07253 C 333.68055,588.42678 333.92642,588.5765 329.74777,587.88503 C 325.81693,587.23458 326.06027,587.46389 326.06027,584.38503 C 326.06027,582.88647 326.21271,581.56586 326.40402,581.44753 C 326.59532,581.32919 327.72461,581.06296 328.90402,580.85378 C 333.06791,580.11522 333.34276,579.92529 334.68527,577.26003 L 335.93527,574.82253 L 333.77902,571.82253 C 332.59036,570.15927 331.59152,568.63521 331.59152,568.44753 C 331.59152,567.9206 335.06815,564.60378 335.62277,564.60378 C 335.89318,564.60378 336.90297,565.20376 337.87277,565.91628 C 340.50351,567.84902 342.13233,568.45517 343.49777,567.97878 C 344.11484,567.76346 344.70783,567.57253 344.77902,567.57253 C 344.85021,567.57253 344.88053,568.35718 344.87277,569.32253 C 344.85917,571.02449 344.8151,571.12923 342.87277,572.47878 C 335.69662,577.46492 334.85569,588.23771 341.15402,594.54128 C 343.22768,596.61668 346.15127,598.1212 349.24777,598.69753 C 353.59257,599.50621 358.50381,597.8818 361.84152,594.54128 L 363.65402,592.76003 L 365.34152,594.94753 C 366.86296,596.90833 367.1435,597.10605 368.09152,596.91628 C 369.01355,596.73171 369.2937,596.90776 370.31027,598.29128 C 370.951,599.16333 371.46652,600.10242 371.46652,600.38503 C 371.46652,600.94493 368.19093,604.11378 367.59152,604.13503 C 367.38842,604.14224 366.47405,603.66074 365.56027,603.04128 C 364.64648,602.42183 363.26044,601.55157 362.46652,601.13503 L 361.02902,600.38503 L 358.49777,601.26003 C 357.10775,601.73365 355.89566,602.35708 355.81027,602.66628 C 355.7329,602.94647 355.50108,604.3297 355.27902,605.69753 C 374.6911,605.14145 393.80283,612.75932 421.24777,628.60378 C 417.30181,621.33897 413.76753,614.8095 410.40402,608.57253 C 405.10598,604.46619 399.58252,599.10819 388.31027,593.32253 C 396.05816,595.33575 401.61118,597.66378 405.93527,600.26003 C 371.73768,536.59011 368.97487,528.12397 357.24777,500.60378 z M 354.40402,557.22878 L 355.96652,557.22878 L 355.96652,564.82253 L 355.96652,572.44753 L 358.96652,568.26003 C 362.1474,563.80337 367.3345,557.22878 367.68527,557.22878 C 367.91436,557.22878 376.16369,559.36507 376.96652,559.63503 C 377.2899,559.74378 376.71587,560.61812 375.34152,562.13503 C 373.18455,564.51572 367.01045,572.38338 365.84152,574.22878 L 365.18527,575.26003 L 368.46652,580.19753 C 370.28363,582.90974 372.98139,586.61163 374.43527,588.41628 C 375.88906,590.22092 376.94557,591.80512 376.77902,591.94753 C 376.22268,592.42315 368.11839,594.60662 367.62277,594.41628 C 366.88576,594.13323 362.00588,587.50176 358.90402,582.57253 L 356.15402,578.19753 L 355.96652,585.72878 L 355.77902,593.26003 L 351.24777,593.82253 L 346.74777,594.41628 L 346.74777,576.07253 L 346.74777,557.69753 L 349.77902,557.47878 C 351.45423,557.34826 353.54097,557.23001 354.40402,557.22878 z M 344.56027,572.38503 C 344.74143,572.38503 344.90402,572.79468 344.90402,573.32253 C 344.90402,574.01015 344.36075,574.78357 342.99777,576.01003 C 340.40721,578.34113 339.37738,580.65658 339.37277,584.10378 C 339.36798,587.64742 340.3563,590.2721 342.68527,592.82253 C 347.44352,598.03316 354.68127,598.28971 360.68527,593.44753 C 363.26552,591.36663 363.62626,591.45918 361.68527,593.72878 C 359.03201,596.83112 353.21236,598.75448 349.06027,597.88503 C 344.95455,597.02531 341.22649,594.14034 339.21652,590.29128 C 338.14006,588.22986 338.06101,587.81865 338.06027,584.38503 C 338.05952,580.94623 338.15422,580.51552 339.27902,578.22878 C 340.38898,575.97229 343.62504,572.38503 344.56027,572.38503 z "
       id="path3078" />
    <path
       style="fill:#ffffff;fill-opacity:0.16568047;fill-rule:evenodd;stroke:none;stroke-width:36.09999847;stroke-linecap:butt;stroke-linejoin:round;stroke-miterlimit:10;stroke-opacity:1"
       d="M 393.27366,576.68266 C 365.53037,539.02703 359.09977,508.67774 357.47093,501.43204 C 372.26999,535.56667 372.16892,535.98527 393.27366,576.68266 z "
       id="path3082"
       sodipodi:nodetypes="ccc" />
    <path
       style="fill:url(#linearGradient2193);fill-opacity:1;fill-rule:evenodd;stroke:none;stroke-width:0.71416688;stroke-linecap:round;stroke-linejoin:round;stroke-miterlimit:10;stroke-dasharray:none;stroke-opacity:1"
       d="M 64.25 0.5625 C 63.540568 2.3065515 62.843066 3.9833236 62.1875 5.59375 C 61.45916 7.38295 60.750891 9.1066599 60.0625 10.78125 C 59.37417 12.45586 58.707579 14.10571 58.03125 15.71875 C 57.35487 17.33185 56.661061 18.926641 55.96875 20.53125 C 55.2765 22.13582 54.579908 23.7259 53.84375 25.375 C 53.1076 27.02416 52.339181 28.72202 51.53125 30.46875 C 50.72325 32.21548 49.876408 34.00893 48.96875 35.90625 C 48.841254 36.172755 48.692281 36.479926 48.5625 36.75 C 49.532205 37.777174 50.57321 38.830484 51.6875 39.9375 C 52.232178 40.478512 52.784484 41.033582 53.375 41.59375 C 54.589339 42.745683 55.88794 43.954339 57.34375 45.1875 C 57.355378 45.197353 57.363354 45.208892 57.375 45.21875 C 58.822069 46.443404 60.407879 47.695018 62.15625 49 C 62.163069 49.005091 62.180676 48.994908 62.1875 49 C 63.062285 49.652625 63.975582 50.327239 64.9375 51 C 62.863417 50.146526 60.953263 49.293619 59.1875 48.4375 C 59.178871 48.433317 59.164872 48.441683 59.15625 48.4375 C 58.860812 48.294146 58.599898 48.143497 58.3125 48 C 57.186561 47.438024 56.102801 46.877347 55.09375 46.3125 C 54.82535 46.162144 54.541839 45.994365 54.28125 45.84375 C 54.273236 45.839121 54.258006 45.848379 54.25 45.84375 C 53.971756 45.682783 53.73831 45.50504 53.46875 45.34375 C 52.295579 44.642399 51.177009 43.958899 50.15625 43.25 C 50.14396 43.241465 50.137269 43.227286 50.125 43.21875 C 49.506372 42.788282 48.912116 42.371378 48.34375 41.9375 C 47.765607 41.496227 47.218158 41.039166 46.6875 40.59375 C 46.468319 41.041187 46.288271 41.448147 46.0625 41.90625 C 45.230317 43.594936 44.305986 45.430189 43.375 47.28125 C 43.147666 47.733253 42.952513 48.131035 42.71875 48.59375 C 42.672951 48.68566 42.608564 48.782666 42.5625 48.875 C 42.495483 49.00026 42.435521 49.12889 42.375 49.25 C 41.471115 51.059145 40.574597 52.859495 39.5625 54.84375 C 38.513808 56.902829 37.398642 59.037763 36.21875 61.3125 C 35.839019 62.043533 35.51934 62.682422 35.125 63.4375 C 34.297876 65.024124 33.457196 66.583654 32.5625 68.28125 C 31.27307 70.725776 29.942327 73.270115 28.5 75.96875 C 32.05448 73.96503 35.684095 71.775245 39.5 69.6875 C 38.861067 68.741746 38.34375 67.967777 38.34375 67.84375 C 38.34375 67.31682 41.82038 64 42.375 64 C 42.64541 64 43.6552 64.59998 44.625 65.3125 C 45.173071 65.715154 45.657223 66.054044 46.125 66.34375 C 48.48968 65.258515 50.924116 64.248187 53.5 63.40625 L 53.5 57.09375 L 56.53125 56.875 C 58.20646 56.74448 60.2932 56.62623 61.15625 56.625 L 62.71875 56.625 L 62.71875 61.21875 C 65.347468 60.828156 68.102864 60.60983 71 60.625 C 72.792211 58.350996 74.258238 56.625 74.4375 56.625 C 74.66659 56.625 82.91592 58.76129 83.71875 59.03125 C 84.04213 59.14 83.4681 60.01434 82.09375 61.53125 C 82.055459 61.573513 81.978273 61.673093 81.9375 61.71875 C 85.73276 62.428319 89.750383 63.502688 94.03125 65.03125 C 92.43659 62.01099 90.970579 59.162958 89.59375 56.5 C 88.21694 53.83697 86.937766 51.35824 85.75 49 C 84.56233 46.64182 83.464789 44.418481 82.4375 42.3125 C 81.41023 40.20657 80.457988 38.21887 79.5625 36.3125 C 78.66694 34.40618 77.823667 32.57178 77.03125 30.8125 C 76.23877 29.05324 75.499379 27.35222 74.78125 25.6875 C 74.06306 24.02269 73.359931 22.40397 72.6875 20.78125 C 72.01501 19.15848 71.374166 17.53963 70.71875 15.90625 C 70.509227 15.384205 70.304286 14.844365 70.09375 14.3125 C 70.04102 14.188773 69.990302 14.061511 69.9375 13.9375 C 69.357998 12.576733 68.660934 10.970357 68.0625 9.5625 C 66.872759 6.7499814 65.613699 3.7660368 64.25 0.5625 z "
       id="path3080"
       transform="translate(293.24777,500.60378)" />
  </g>
</svg>
