<?xml version="1.0" encoding="UTF-8" standalone="no"?>
<!-- Created with Inkscape (http://www.inkscape.org/) -->
<svg
   xmlns:dc="http://purl.org/dc/elements/1.1/"
   xmlns:cc="http://web.resource.org/cc/"
   xmlns:rdf="http://www.w3.org/1999/02/22-rdf-syntax-ns#"
   xmlns:svg="http://www.w3.org/2000/svg"
   xmlns="http://www.w3.org/2000/svg"
   xmlns:xlink="http://www.w3.org/1999/xlink"
   xmlns:sodipodi="http://sodipodi.sourceforge.net/DTD/sodipodi-0.dtd"
   xmlns:inkscape="http://www.inkscape.org/namespaces/inkscape"
   width="128"
   height="128"
   id="svg2488"
   sodipodi:version="0.32"
   inkscape:version="0.45.1"
   sodipodi:docbase="/home/thayer/tmp/archlinux-logo-contest/archer/masters"
   sodipodi:docname="archlinux-mods-kdemod.svg"
   inkscape:output_extension="org.inkscape.output.svg.inkscape"
   version="1.0">
  <defs
     id="defs2490">
    <linearGradient
       inkscape:collect="always"
       xlink:href="#path1082_2_"
       id="linearGradient2191"
       gradientUnits="userSpaceOnUse"
       gradientTransform="matrix(-0.2652794,0,0,0.2652645,207.89863,-12.5586)"
       x1="541.33502"
       y1="104.50665"
       x2="606.91248"
       y2="303.14029" />
    <linearGradient
       inkscape:collect="always"
       xlink:href="#path1082_2_"
       id="linearGradient2185"
       gradientUnits="userSpaceOnUse"
       gradientTransform="matrix(-0.2652794,0,0,0.2652645,207.89863,-12.5586)"
       x1="541.33502"
       y1="104.50665"
       x2="606.91248"
       y2="303.14029" />
    <linearGradient
       gradientUnits="userSpaceOnUse"
       id="path1082_2_"
       y2="129.3468"
       x2="112.49853"
       y1="6.1372099"
       x1="112.49854"
       gradientTransform="translate(287,-83)">
      <stop
         id="stop193"
         offset="0"
         style="stop-color:#ffffff;stop-opacity:0" />
      <stop
         id="stop195"
         offset="1"
         style="stop-color:#ffffff;stop-opacity:0.27218935" />
      <midPointStop
         id="midPointStop197"
         style="stop-color:#FFFFFF"
         offset="0" />
      <midPointStop
         id="midPointStop199"
         style="stop-color:#FFFFFF"
         offset="0.5" />
      <midPointStop
         id="midPointStop201"
         style="stop-color:#000000"
         offset="1" />
    </linearGradient>
    <linearGradient
       inkscape:collect="always"
       xlink:href="#path1082_2_"
       id="linearGradient2720"
       gradientUnits="userSpaceOnUse"
       gradientTransform="matrix(-0.2655026,0,0,0.2652645,410.96414,745.53758)"
       x1="541.33502"
       y1="104.50665"
       x2="606.91248"
       y2="303.14029" />
    <linearGradient
       inkscape:collect="always"
       xlink:href="#path1082_2_"
       id="linearGradient2722"
       gradientUnits="userSpaceOnUse"
       gradientTransform="matrix(-0.2655026,0,0,0.2652645,410.96414,745.53758)"
       x1="541.33502"
       y1="104.50665"
       x2="606.91248"
       y2="303.14029" />
    <linearGradient
       inkscape:collect="always"
       xlink:href="#path1082_2_"
       id="linearGradient2724"
       gradientUnits="userSpaceOnUse"
       gradientTransform="matrix(-0.2655026,0,0,0.2652645,410.96414,745.53758)"
       x1="541.33502"
       y1="104.50665"
       x2="606.91248"
       y2="303.14029" />
    <linearGradient
       inkscape:collect="always"
       xlink:href="#path1082_2_"
       id="linearGradient2726"
       gradientUnits="userSpaceOnUse"
       gradientTransform="matrix(0.265284,0,0,0.263072,63.728962,131.00373)"
       x1="541.33502"
       y1="104.50665"
       x2="606.91248"
       y2="303.14029" />
    <linearGradient
       inkscape:collect="always"
       xlink:href="#path1082_2_"
       id="linearGradient2728"
       gradientUnits="userSpaceOnUse"
       gradientTransform="matrix(-0.2655026,0,0,0.2652645,410.96414,745.53758)"
       x1="541.33502"
       y1="104.50665"
       x2="606.91248"
       y2="303.14029" />
    <linearGradient
       inkscape:collect="always"
       xlink:href="#path1082_2_"
       id="linearGradient2730"
       gradientUnits="userSpaceOnUse"
       gradientTransform="matrix(-0.2655026,0,0,0.2652645,410.96414,745.53758)"
       x1="541.33502"
       y1="104.50665"
       x2="606.91248"
       y2="303.14029" />
    <linearGradient
       inkscape:collect="always"
       xlink:href="#path1082_2_"
       id="linearGradient2732"
       gradientUnits="userSpaceOnUse"
       gradientTransform="matrix(-0.2655026,0,0,0.2652645,410.96414,745.53758)"
       x1="541.33502"
       y1="104.50665"
       x2="606.91248"
       y2="303.14029" />
    <linearGradient
       inkscape:collect="always"
       xlink:href="#path1082_2_"
       id="linearGradient2734"
       gradientUnits="userSpaceOnUse"
       gradientTransform="matrix(-0.2655026,0,0,0.2652645,410.96414,745.53758)"
       x1="541.33502"
       y1="104.50665"
       x2="606.91248"
       y2="303.14029" />
    <linearGradient
       inkscape:collect="always"
       xlink:href="#path1082_2_"
       id="linearGradient2736"
       gradientUnits="userSpaceOnUse"
       gradientTransform="matrix(-0.2655026,0,0,0.2652645,410.96414,745.53758)"
       x1="541.33502"
       y1="104.50665"
       x2="606.91248"
       y2="303.14029" />
    <linearGradient
       inkscape:collect="always"
       xlink:href="#path1082_2_"
       id="linearGradient2181"
       gradientUnits="userSpaceOnUse"
       gradientTransform="matrix(-0.2652794,0,0,0.2652645,341.1464,488.04518)"
       x1="541.33502"
       y1="104.50665"
       x2="606.91248"
       y2="303.14029" />
  </defs>
  <sodipodi:namedview
     id="base"
     pagecolor="#ffffff"
     bordercolor="#666666"
     borderopacity="1.0"
     gridtolerance="10000"
     guidetolerance="10"
     objecttolerance="10"
     inkscape:pageopacity="0.0"
     inkscape:pageshadow="2"
     inkscape:zoom="1"
     inkscape:cx="64"
     inkscape:cy="64"
     inkscape:document-units="px"
     inkscape:current-layer="layer1"
     inkscape:window-width="636"
     inkscape:window-height="511"
     inkscape:window-x="1038"
     inkscape:window-y="16" />
  <metadata
     id="metadata2493">
    <rdf:RDF>
      <cc:Work
         rdf:about="">
        <dc:format>image/svg+xml</dc:format>
        <dc:type
           rdf:resource="http://purl.org/dc/dcmitype/StillImage" />
      </cc:Work>
    </rdf:RDF>
  </metadata>
  <g
     inkscape:label="Layer 1"
     inkscape:groupmode="layer"
     id="layer1"
     transform="translate(-133.24777,-500.60378)">
    <path
       style="fill:#1793d1;fill-opacity:1;fill-rule:evenodd;stroke:none;stroke-width:1;stroke-linecap:round;stroke-linejoin:round;stroke-miterlimit:10;stroke-dasharray:none;stroke-opacity:1"
       d="M 64 0 C 58.302591 13.96853 54.84331 23.13421 48.5 36.6875 C 52.38924 40.810098 57.18474 45.57775 64.9375 51 C 56.602538 47.570211 50.90508 44.13575 46.65625 40.5625 C 38.538019 57.50245 25.81083 81.6232 0 128 C 17.683366 117.79109 31.902858 111.02773 44.96875 107.625 L 44.96875 59.78125 L 56.875 58.625 L 56.75 80.1875 L 72.46875 59.15625 L 85.125 62.0625 L 68.78125 83.125 L 85 105.4375 L 80.28125 106.9375 C 94.114482 110.06588 109.06911 117.07086 128 128 C 124.05403 120.73519 120.51976 114.20572 117.15625 107.96875 C 111.85821 103.86241 106.33474 98.50441 95.0625 92.71875 C 102.81038 94.731967 108.36342 97.06 112.6875 99.65625 C 78.489921 35.986329 75.7271 27.52019 64 0 z M 98.25 77.03125 L 100.40625 77.03125 L 100.40625 88.5 L 98.25 88.5 L 98.25 87.28125 C 98.018754 87.758894 97.712747 88.133716 97.34375 88.375 C 96.97966 88.616283 96.528168 88.71875 96.03125 88.71875 C 95.086604 88.718751 94.365271 88.352071 93.84375 87.59375 C 93.322226 86.835432 93.062499 85.753768 93.0625 84.375 C 93.062503 82.976542 93.317306 81.904729 93.84375 81.15625 C 94.375113 80.407787 95.145912 80.031258 96.125 80.03125 C 96.567801 80.031262 96.963174 80.143573 97.3125 80.375 C 97.666738 80.601516 97.984313 80.94831 98.25 81.40625 L 98.25 77.03125 z M 77.875 80.03125 C 78.209557 80.031262 78.505724 80.141868 78.78125 80.34375 C 79.056768 80.540723 79.222205 80.776906 79.28125 81.0625 C 79.443603 80.712888 79.655323 80.44868 79.90625 80.28125 C 80.157167 80.113836 80.479662 80.031258 80.84375 80.03125 C 81.557144 80.031262 82.041891 80.288842 82.3125 80.78125 C 82.588013 81.273677 82.718741 82.287721 82.71875 83.84375 L 82.71875 88.5 L 80.96875 88.5 L 80.96875 83.21875 C 80.968742 82.603236 80.905974 82.175571 80.8125 81.96875 C 80.719011 81.761945 80.558495 81.656257 80.3125 81.65625 C 80.066493 81.656256 79.879645 81.757018 79.78125 81.96875 C 79.682843 82.180499 79.624995 82.613084 79.625 83.21875 L 79.625 88.5 L 77.90625 88.5 L 77.90625 83.21875 C 77.906243 82.613084 77.848397 82.180495 77.75 81.96875 C 77.651598 81.757021 77.464748 81.656257 77.21875 81.65625 C 76.972747 81.656256 76.812228 81.761942 76.71875 81.96875 C 76.62527 82.175574 76.562498 82.603236 76.5625 83.21875 L 76.5625 88.5 L 74.8125 88.5 L 74.8125 80.25 L 76.375 80.25 L 76.375 81.09375 C 76.497997 80.768763 76.698146 80.530876 76.96875 80.34375 C 77.239349 80.151712 77.540435 80.031258 77.875 80.03125 z M 87.84375 80.03125 C 89.01471 80.031262 89.93619 80.435816 90.625 81.21875 C 91.318712 81.996775 91.687492 83.040557 91.6875 84.375 C 91.687492 85.70945 91.318715 86.77956 90.625 87.5625 C 89.936186 88.340516 89.01471 88.71875 87.84375 88.71875 C 86.677701 88.718751 85.756221 88.340518 85.0625 87.5625 C 84.373692 86.779557 84.031249 85.709451 84.03125 84.375 C 84.031251 83.040556 84.373696 81.996774 85.0625 81.21875 C 85.756217 80.435817 86.677701 80.031258 87.84375 80.03125 z M 87.84375 81.8125 C 87.327144 81.81251 86.920198 82.042059 86.625 82.5 C 86.329794 82.953032 86.187497 83.562518 86.1875 84.375 C 86.187496 85.187489 86.329796 85.823305 86.625 86.28125 C 86.920197 86.734277 87.327143 86.968752 87.84375 86.96875 C 88.365268 86.968754 88.767293 86.734275 89.0625 86.28125 C 89.357699 85.823308 89.499994 85.18749 89.5 84.375 C 89.499997 83.562517 89.357695 82.953029 89.0625 82.5 C 88.767297 82.042063 88.365268 81.812507 87.84375 81.8125 z M 96.71875 81.84375 C 96.251346 81.843758 95.890678 82.078233 95.625 82.53125 C 95.359317 82.984279 95.218747 83.60854 95.21875 84.40625 C 95.218748 85.203968 95.359316 85.82823 95.625 86.28125 C 95.890679 86.734275 96.251344 86.968752 96.71875 86.96875 C 97.18615 86.968752 97.573144 86.734275 97.84375 86.28125 C 98.114343 85.82823 98.249994 85.203968 98.25 84.40625 C 98.249995 83.608541 98.114346 82.984279 97.84375 82.53125 C 97.573141 82.078234 97.186148 81.843757 96.71875 81.84375 z M 56.75 86.15625 L 56.75 105.40625 C 61.123224 104.94999 65.45109 104.94624 69.8125 105.3125 L 56.75 86.15625 z "
       transform="translate(133.24777,500.60378)"
       id="path2238" />
    <path
       style="fill:#ffffff;fill-opacity:0.16568047;fill-rule:evenodd;stroke:none;stroke-width:36.09999847;stroke-linecap:butt;stroke-linejoin:round;stroke-miterlimit:10;stroke-opacity:1"
       d="M 233.27366,576.68266 C 205.53038,539.02703 199.09978,508.67774 197.47094,501.43204 C 212.27,535.56667 212.16892,535.98527 233.27366,576.68266 z "
       id="path2242"
       sodipodi:nodetypes="ccc" />
    <path
       style="fill:url(#linearGradient2191);fill-opacity:1;fill-rule:evenodd;stroke:none;stroke-width:0.71416688;stroke-linecap:round;stroke-linejoin:round;stroke-miterlimit:10;stroke-dasharray:none;stroke-opacity:1"
       d="M 64.25 0.5625 C 63.54057 2.30655 62.84306 3.98332 62.1875 5.59375 C 61.45915 7.38295 60.75089 9.10666 60.0625 10.78125 C 59.37417 12.45586 58.70758 14.10571 58.03125 15.71875 C 57.35487 17.33185 56.66106 18.92664 55.96875 20.53125 C 55.27649 22.13582 54.57991 23.7259 53.84375 25.375 C 53.1076 27.02416 52.33918 28.72202 51.53125 30.46875 C 50.72325 32.21548 49.87641 34.00893 48.96875 35.90625 C 48.84125 36.17275 48.69228 36.47993 48.5625 36.75 C 49.532207 37.777175 50.57321 38.830484 51.6875 39.9375 C 52.232178 40.478512 52.784484 41.033582 53.375 41.59375 C 54.589339 42.745683 55.887941 43.954339 57.34375 45.1875 C 57.355378 45.197353 57.363354 45.208892 57.375 45.21875 C 58.822068 46.443404 60.40788 47.695018 62.15625 49 C 62.163069 49.005091 62.180676 48.994908 62.1875 49 C 63.062285 49.652625 63.975582 50.327239 64.9375 51 C 62.863416 50.146527 60.953263 49.293619 59.1875 48.4375 C 59.178871 48.433317 59.164872 48.441683 59.15625 48.4375 C 58.860812 48.294146 58.599898 48.143497 58.3125 48 C 57.18656 47.438024 56.102801 46.877347 55.09375 46.3125 C 54.82535 46.162144 54.541839 45.994365 54.28125 45.84375 C 54.273236 45.839121 54.258006 45.848379 54.25 45.84375 C 53.971756 45.682783 53.73831 45.50504 53.46875 45.34375 C 52.295579 44.642399 51.177009 43.958899 50.15625 43.25 C 50.14396 43.241465 50.137269 43.227286 50.125 43.21875 C 49.506373 42.788282 48.912116 42.371378 48.34375 41.9375 C 47.765608 41.496227 47.218158 41.039166 46.6875 40.59375 C 46.46832 41.04119 46.28827 41.44815 46.0625 41.90625 C 45.23032 43.59494 44.30598 45.43019 43.375 47.28125 C 43.14767 47.73325 42.95251 48.13104 42.71875 48.59375 C 42.672951 48.68566 42.608564 48.782666 42.5625 48.875 C 42.495483 49.00026 42.435522 49.128888 42.375 49.25 C 41.471115 51.059145 40.574597 52.859495 39.5625 54.84375 C 38.513808 56.90283 37.398642 59.037763 36.21875 61.3125 C 35.839019 62.043533 35.51934 62.682422 35.125 63.4375 C 34.297876 65.024124 33.457196 66.583654 32.5625 68.28125 C 31.27307 70.725776 29.942327 73.270115 28.5 75.96875 C 33.707 73.033479 39.064829 69.691664 44.96875 66.875 L 44.96875 59.78125 L 56.875 58.625 L 56.84375 62.4375 C 61.291414 61.268966 66.090572 60.562051 71.375 60.625 L 72.46875 59.15625 L 85.125 62.0625 L 84.90625 62.34375 C 87.818118 63.017811 90.846057 63.893919 94.03125 65.03125 C 92.43658 62.01099 90.97058 59.16296 89.59375 56.5 C 88.21694 53.83697 86.93777 51.35824 85.75 49 C 84.56233 46.64182 83.46479 44.41848 82.4375 42.3125 C 81.41023 40.20657 80.458 38.21887 79.5625 36.3125 C 78.66694 34.40618 77.82367 32.57178 77.03125 30.8125 C 76.23877 29.05324 75.49938 27.35222 74.78125 25.6875 C 74.06306 24.02269 73.35994 22.40397 72.6875 20.78125 C 72.01502 19.15848 71.37417 17.53963 70.71875 15.90625 C 70.509225 15.384207 70.304284 14.844365 70.09375 14.3125 C 70.04102 14.188773 69.990302 14.061511 69.9375 13.9375 C 69.357999 12.576735 68.660934 10.970357 68.0625 9.5625 C 66.872758 6.7499814 65.613699 3.7660368 64.25 0.5625 z "
       id="path2240"
       transform="translate(133.24777,500.60378)" />
  </g>
</svg>
