<?xml version="1.0" encoding="UTF-8" standalone="no"?>
<!-- Created with Inkscape (http://www.inkscape.org/) -->
<svg
   xmlns:dc="http://purl.org/dc/elements/1.1/"
   xmlns:cc="http://web.resource.org/cc/"
   xmlns:rdf="http://www.w3.org/1999/02/22-rdf-syntax-ns#"
   xmlns:svg="http://www.w3.org/2000/svg"
   xmlns="http://www.w3.org/2000/svg"
   xmlns:xlink="http://www.w3.org/1999/xlink"
   xmlns:sodipodi="http://sodipodi.sourceforge.net/DTD/sodipodi-0.dtd"
   xmlns:inkscape="http://www.inkscape.org/namespaces/inkscape"
   width="128"
   height="128"
   id="svg2488"
   sodipodi:version="0.32"
   inkscape:version="0.45.1"
   sodipodi:docbase="/home/thayer/tmp/archlinux-logo-contest/archer/masters"
   sodipodi:docname="archlinux-mods-xfce.svg"
   inkscape:output_extension="org.inkscape.output.svg.inkscape"
   version="1.0">
  <defs
     id="defs2490">
    <linearGradient
       inkscape:collect="always"
       xlink:href="#path1082_2_"
       id="linearGradient2225"
       gradientUnits="userSpaceOnUse"
       gradientTransform="matrix(-0.2652794,0,0,0.2652645,207.89863,-12.5586)"
       x1="541.33502"
       y1="104.50665"
       x2="606.91248"
       y2="303.14029" />
    <linearGradient
       inkscape:collect="always"
       xlink:href="#path1082_2_"
       id="linearGradient16260"
       gradientUnits="userSpaceOnUse"
       gradientTransform="matrix(-0.2655026,0,0,0.2652645,410.96414,745.53758)"
       x1="541.33502"
       y1="104.50665"
       x2="606.91248"
       y2="303.14029" />
    <linearGradient
       inkscape:collect="always"
       xlink:href="#path1082_2_"
       id="linearGradient14312"
       gradientUnits="userSpaceOnUse"
       gradientTransform="matrix(-0.2655026,0,0,0.2652645,410.96414,745.53758)"
       x1="541.33502"
       y1="104.50665"
       x2="606.91248"
       y2="303.14029" />
    <linearGradient
       inkscape:collect="always"
       xlink:href="#path1082_2_"
       id="linearGradient12330"
       gradientUnits="userSpaceOnUse"
       gradientTransform="matrix(-0.2655026,0,0,0.2652645,410.96414,745.53758)"
       x1="541.33502"
       y1="104.50665"
       x2="606.91248"
       y2="303.14029" />
    <linearGradient
       inkscape:collect="always"
       xlink:href="#path1082_2_"
       id="linearGradient3457"
       gradientUnits="userSpaceOnUse"
       gradientTransform="matrix(0.265284,0,0,0.263072,63.728962,131.00373)"
       x1="541.33502"
       y1="104.50665"
       x2="606.91248"
       y2="303.14029" />
    <linearGradient
       inkscape:collect="always"
       xlink:href="#path1082_2_"
       id="linearGradient7399"
       gradientUnits="userSpaceOnUse"
       gradientTransform="matrix(-0.2655026,0,0,0.2652645,410.96414,745.53758)"
       x1="541.33502"
       y1="104.50665"
       x2="606.91248"
       y2="303.14029" />
    <linearGradient
       inkscape:collect="always"
       xlink:href="#path1082_2_"
       id="linearGradient8412"
       gradientUnits="userSpaceOnUse"
       gradientTransform="matrix(-0.2655026,0,0,0.2652645,410.96414,745.53758)"
       x1="541.33502"
       y1="104.50665"
       x2="606.91248"
       y2="303.14029" />
    <linearGradient
       gradientUnits="userSpaceOnUse"
       id="path1082_2_"
       y2="129.3468"
       x2="112.49853"
       y1="6.1372099"
       x1="112.49854"
       gradientTransform="translate(287,-83)">
      <stop
         id="stop193"
         offset="0"
         style="stop-color:#ffffff;stop-opacity:0" />
      <stop
         id="stop195"
         offset="1"
         style="stop-color:#ffffff;stop-opacity:0.27218935" />
      <midPointStop
         id="midPointStop197"
         style="stop-color:#FFFFFF"
         offset="0" />
      <midPointStop
         id="midPointStop199"
         style="stop-color:#FFFFFF"
         offset="0.5" />
      <midPointStop
         id="midPointStop201"
         style="stop-color:#000000"
         offset="1" />
    </linearGradient>
    <linearGradient
       inkscape:collect="always"
       xlink:href="#path1082_2_"
       id="linearGradient13315"
       gradientUnits="userSpaceOnUse"
       gradientTransform="matrix(-0.2655026,0,0,0.2652645,410.96414,745.53758)"
       x1="541.33502"
       y1="104.50665"
       x2="606.91248"
       y2="303.14029" />
    <linearGradient
       inkscape:collect="always"
       xlink:href="#path1082_2_"
       id="linearGradient2250"
       gradientUnits="userSpaceOnUse"
       gradientTransform="matrix(-0.2655026,0,0,0.2652645,410.96414,745.53758)"
       x1="541.33502"
       y1="104.50665"
       x2="606.91248"
       y2="303.14029" />
    <linearGradient
       inkscape:collect="always"
       xlink:href="#path1082_2_"
       id="linearGradient3094"
       gradientUnits="userSpaceOnUse"
       gradientTransform="matrix(-0.2655026,0,0,0.2652645,410.96414,745.53758)"
       x1="541.33502"
       y1="104.50665"
       x2="606.91248"
       y2="303.14029" />
    <linearGradient
       inkscape:collect="always"
       xlink:href="#path1082_2_"
       id="linearGradient2369"
       gradientUnits="userSpaceOnUse"
       gradientTransform="matrix(-0.2655026,0,0,0.2652645,410.96414,745.53758)"
       x1="541.33502"
       y1="104.50665"
       x2="606.91248"
       y2="303.14029" />
    <linearGradient
       inkscape:collect="always"
       xlink:href="#path1082_2_"
       id="linearGradient2371"
       gradientUnits="userSpaceOnUse"
       gradientTransform="matrix(-0.2655026,0,0,0.2652645,410.96414,745.53758)"
       x1="541.33502"
       y1="104.50665"
       x2="606.91248"
       y2="303.14029" />
    <linearGradient
       inkscape:collect="always"
       xlink:href="#path1082_2_"
       id="linearGradient2373"
       gradientUnits="userSpaceOnUse"
       gradientTransform="matrix(-0.2655026,0,0,0.2652645,410.96414,745.53758)"
       x1="541.33502"
       y1="104.50665"
       x2="606.91248"
       y2="303.14029" />
    <linearGradient
       inkscape:collect="always"
       xlink:href="#path1082_2_"
       id="linearGradient2375"
       gradientUnits="userSpaceOnUse"
       gradientTransform="matrix(0.265284,0,0,0.263072,63.728962,131.00373)"
       x1="541.33502"
       y1="104.50665"
       x2="606.91248"
       y2="303.14029" />
    <linearGradient
       inkscape:collect="always"
       xlink:href="#path1082_2_"
       id="linearGradient2377"
       gradientUnits="userSpaceOnUse"
       gradientTransform="matrix(-0.2655026,0,0,0.2652645,410.96414,745.53758)"
       x1="541.33502"
       y1="104.50665"
       x2="606.91248"
       y2="303.14029" />
    <linearGradient
       inkscape:collect="always"
       xlink:href="#path1082_2_"
       id="linearGradient2379"
       gradientUnits="userSpaceOnUse"
       gradientTransform="matrix(-0.2655026,0,0,0.2652645,410.96414,745.53758)"
       x1="541.33502"
       y1="104.50665"
       x2="606.91248"
       y2="303.14029" />
    <linearGradient
       inkscape:collect="always"
       xlink:href="#path1082_2_"
       id="linearGradient2381"
       gradientUnits="userSpaceOnUse"
       gradientTransform="matrix(-0.2655026,0,0,0.2652645,410.96414,745.53758)"
       x1="541.33502"
       y1="104.50665"
       x2="606.91248"
       y2="303.14029" />
    <linearGradient
       inkscape:collect="always"
       xlink:href="#path1082_2_"
       id="linearGradient2188"
       gradientUnits="userSpaceOnUse"
       gradientTransform="matrix(-0.2652794,0,0,0.2652645,665.28926,130.90234)"
       x1="541.33502"
       y1="104.50665"
       x2="606.91248"
       y2="303.14029" />
  </defs>
  <sodipodi:namedview
     id="base"
     pagecolor="#ffffff"
     bordercolor="#666666"
     borderopacity="1.0"
     gridtolerance="10000"
     guidetolerance="10"
     objecttolerance="10"
     inkscape:pageopacity="0.0"
     inkscape:pageshadow="2"
     inkscape:zoom="1"
     inkscape:cx="64"
     inkscape:cy="64"
     inkscape:document-units="px"
     inkscape:current-layer="layer1"
     inkscape:window-width="1032"
     inkscape:window-height="1028"
     inkscape:window-x="0"
     inkscape:window-y="16" />
  <metadata
     id="metadata2493">
    <rdf:RDF>
      <cc:Work
         rdf:about="">
        <dc:format>image/svg+xml</dc:format>
        <dc:type
           rdf:resource="http://purl.org/dc/dcmitype/StillImage" />
      </cc:Work>
    </rdf:RDF>
  </metadata>
  <g
     inkscape:label="Layer 1"
     inkscape:groupmode="layer"
     id="layer1"
     transform="translate(-457.39063,-143.46094)">
    <path
       style="fill:#2ad4ff;fill-opacity:1;fill-rule:evenodd;stroke:none;stroke-width:1;stroke-linecap:round;stroke-linejoin:round;stroke-miterlimit:10;stroke-dasharray:none;stroke-opacity:1"
       d="M 64 0 C 58.302591 13.96853 54.84331 23.13421 48.5 36.6875 C 52.38924 40.810098 57.18474 45.57775 64.9375 51 C 56.602538 47.570211 50.90508 44.13575 46.65625 40.5625 C 41.163891 52.02316 33.431676 66.954136 21.09375 89.65625 C 21.723011 89.453815 22.385278 89.251206 22.9375 89.0625 C 28.144211 87.283136 33.4832 86.43087 39.03125 86.46875 L 43.53125 86.5 L 44.75 84.375 C 45.84991 82.436357 46.30841 82.04863 50.53125 79.71875 C 55.098119 77.19905 57.53901 75.63779 59.21875 74.09375 C 60.454339 72.958051 59.40337 69.12249 57.375 67.375 C 56.48068 66.604397 55.73512 65.48371 55.59375 64.71875 C 55.18286 62.496038 56.67274 62.02799 59.875 63.375 C 61.496512 64.05708 62.98426 64.50612 63.1875 64.34375 C 63.390732 64.181353 62.46451 62.72476 61.125 61.125 C 58.82015 58.37215 58.75343 58.1742 59.625 57.25 C 60.938731 55.85692 61.81231 56.13431 64.4375 58.78125 L 66.75 61.125 L 71 58.96875 C 75.940067 56.484101 79.48802 55.61301 81.71875 56.34375 C 85.061258 57.438761 84.86952 60.53419 80.90625 69.15625 C 78.679537 74.000359 78.94383 74.66776 83.34375 75.5625 C 84.996867 75.898638 86.48163 76.34395 86.65625 76.5625 C 87.055612 77.062223 86.11468 77.83836 84.40625 78.40625 C 81.870511 79.24917 80.20294 80.18296 80.53125 80.59375 C 80.713071 80.82125 81.82327 81.20252 83 81.4375 C 87.580062 82.352101 86.77549 84.11808 81.09375 85.53125 C 77.75567 86.361458 77.37155 86.59789 70.8125 92 C 66.937578 95.191431 62.76568 98.24606 61.15625 99.0625 L 58.34375 100.46875 L 57.46875 104.46875 C 57.395236 104.80855 57.321631 105.03924 57.25 105.34375 C 78.36461 103.29098 98.312463 110.86085 128 128 C 124.05403 120.73519 120.51976 114.20572 117.15625 107.96875 C 111.85821 103.86241 106.33474 98.50441 95.0625 92.71875 C 102.81038 94.731967 108.36342 97.06 112.6875 99.65625 C 78.489921 35.986329 75.7271 27.52019 64 0 z M 77.5625 48.90625 L 78.15625 51.46875 C 78.764133 54.174799 78.6669 54.85053 77.8125 53.78125 C 77.533878 53.432602 77.36322 52.20041 77.4375 51.03125 L 77.5625 48.90625 z M 74.65625 50.96875 C 74.739151 50.955382 74.913785 51.126225 75.1875 51.5 C 75.552943 51.999101 76.08594 53.02331 76.375 53.78125 C 76.889867 55.13178 76.87993 55.13633 75.8125 53.875 C 75.21338 53.16704 74.68031 52.14289 74.625 51.59375 C 74.583549 51.182526 74.573349 50.982118 74.65625 50.96875 z M 70.5625 62.3125 C 70.335868 62.318868 70.134272 62.398998 69.96875 62.53125 C 69.632448 62.799979 69.67673 63.39218 70.0625 63.875 C 70.722836 64.70132 71.85258 64.38368 71.96875 63.34375 C 72.033169 62.767398 71.242396 62.293396 70.5625 62.3125 z M 68.03125 65.125 L 69.25 65.96875 C 69.907898 66.431938 70.77653 66.7878 71.1875 66.75 C 72.265918 66.65094 73.0961 65.8863 72.6875 65.375 C 72.49453 65.133601 72.0359 65.15907 71.6875 65.4375 C 71.339041 65.715877 70.39471 65.75625 69.5625 65.53125 L 68.03125 65.125 z M 77.40625 65.25 C 77.370676 65.245497 77.349243 65.251898 77.3125 65.28125 C 76.91212 65.601198 75.4855 68.88006 75.65625 69.09375 C 75.909427 69.410639 77.70062 66.28104 77.625 65.65625 C 77.595369 65.412456 77.512973 65.263509 77.40625 65.25 z M 79.125 66.34375 C 78.630412 66.23354 78.165999 67.760338 78.3125 69.3125 L 78.46875 71.0625 L 79.0625 68.96875 C 79.387888 67.828068 79.51743 66.71739 79.34375 66.5 C 79.27382 66.412492 79.195655 66.359494 79.125 66.34375 z M 39.5 88.40625 C 38.965757 88.409155 38.351404 88.42492 37.65625 88.4375 C 33.231501 88.517567 27.72372 89.37906 22.53125 90.8125 C 21.733297 91.032781 20.942946 91.220303 20.15625 91.40625 C 14.460251 101.86976 7.9073392 113.79212 0 128 C 20.10713 116.39181 35.736062 109.21542 50.28125 106.40625 C 50.132949 105.86879 50.027332 104.99937 50 104.125 C 49.943581 102.32161 49.41125 101.20374 47.28125 98.21875 C 45.434221 95.630393 44.45536 93.66102 44 91.65625 C 43.343994 88.767878 43.239698 88.385915 39.5 88.40625 z M 53.4375 103.9375 C 53.288471 103.9021 53.168377 104.0776 52.96875 104.375 C 52.42913 105.17902 52.027216 105.70437 51.71875 106.125 C 52.616463 105.96886 53.515238 105.84108 54.40625 105.71875 C 53.941924 104.57485 53.653633 103.98884 53.4375 103.9375 z "
       transform="translate(457.39063,143.46094)"
       id="path12324" />
    <path
       style="fill:#ffffff;fill-opacity:0.16568047;fill-rule:evenodd;stroke:none;stroke-width:36.09999847;stroke-linecap:butt;stroke-linejoin:round;stroke-miterlimit:10;stroke-opacity:1"
       d="M 557.41652,219.53982 C 529.67324,181.88419 523.24264,151.5349 521.6138,144.2892 C 536.41286,178.42383 536.31178,178.84243 557.41652,219.53982 z "
       id="path12328"
       sodipodi:nodetypes="ccc" />
    <path
       style="fill:url(#linearGradient2188);fill-opacity:1;fill-rule:evenodd;stroke:none;stroke-width:0.71416688;stroke-linecap:round;stroke-linejoin:round;stroke-miterlimit:10;stroke-dasharray:none;stroke-opacity:1"
       d="M 64.25 0.5625 C 63.54057 2.30655 62.84306 3.98332 62.1875 5.59375 C 61.45915 7.38295 60.75089 9.10666 60.0625 10.78125 C 59.37417 12.45586 58.70758 14.10571 58.03125 15.71875 C 57.35487 17.33185 56.66106 18.92664 55.96875 20.53125 C 55.27649 22.13582 54.57991 23.7259 53.84375 25.375 C 53.1076 27.02416 52.33918 28.72202 51.53125 30.46875 C 50.72325 32.21548 49.87641 34.00893 48.96875 35.90625 C 48.84125 36.17275 48.69228 36.47993 48.5625 36.75 C 49.532207 37.777175 50.57321 38.830484 51.6875 39.9375 C 52.232178 40.478512 52.784484 41.033582 53.375 41.59375 C 54.589339 42.745683 55.887941 43.954339 57.34375 45.1875 C 57.355378 45.197353 57.363354 45.208892 57.375 45.21875 C 58.822068 46.443404 60.40788 47.695018 62.15625 49 C 62.163069 49.005091 62.180676 48.994908 62.1875 49 C 63.062285 49.652625 63.975582 50.327239 64.9375 51 C 62.863416 50.146527 60.953263 49.293619 59.1875 48.4375 C 59.178871 48.433317 59.164872 48.441683 59.15625 48.4375 C 58.860812 48.294146 58.599898 48.143497 58.3125 48 C 57.18656 47.438024 56.102801 46.877347 55.09375 46.3125 C 54.82535 46.162144 54.541839 45.994365 54.28125 45.84375 C 54.273236 45.839121 54.258006 45.848379 54.25 45.84375 C 53.971756 45.682783 53.73831 45.50504 53.46875 45.34375 C 52.295579 44.642399 51.177009 43.958899 50.15625 43.25 C 50.14396 43.241465 50.137269 43.227286 50.125 43.21875 C 49.506373 42.788282 48.912116 42.371378 48.34375 41.9375 C 47.765608 41.496227 47.218158 41.039166 46.6875 40.59375 C 46.46832 41.04119 46.28827 41.44815 46.0625 41.90625 C 45.23032 43.59494 44.30599 45.43019 43.375 47.28125 C 43.196704 47.640583 43.026267 47.946434 42.84375 48.3125 C 42.79751 48.404845 42.767728 48.496799 42.71875 48.59375 C 41.785825 50.462525 40.70691 52.566466 39.65625 54.625 C 39.59016 54.754856 39.535337 54.869327 39.46875 55 C 38.471406 56.951721 37.551864 58.763362 36.4375 60.90625 C 35.224442 63.2475 33.930885 65.684877 32.5625 68.28125 C 31.540046 70.217282 30.646976 71.940103 29.53125 74.03125 C 29.178822 74.692761 28.862328 75.290992 28.5 75.96875 C 38.101675 70.556129 48.174572 63.743737 61.375 61.4375 C 61.287839 61.330248 61.21622 61.233943 61.125 61.125 C 58.82015 58.37215 58.75343 58.1742 59.625 57.25 C 60.938731 55.85692 61.81231 56.13431 64.4375 58.78125 L 66.4375 60.8125 C 66.797798 60.784332 67.166317 60.739899 67.53125 60.71875 L 71 58.96875 C 75.940067 56.484101 79.48802 55.61301 81.71875 56.34375 C 83.906127 57.060338 84.562489 58.644296 83.65625 62.0625 C 86.94372 62.762657 90.388793 63.730644 94.03125 65.03125 C 92.43658 62.01099 90.97058 59.16296 89.59375 56.5 C 88.21694 53.83697 86.93777 51.35824 85.75 49 C 84.56233 46.64182 83.46479 44.41848 82.4375 42.3125 C 81.41023 40.20657 80.458 38.21887 79.5625 36.3125 C 78.66694 34.40618 77.82367 32.57178 77.03125 30.8125 C 76.23877 29.05324 75.49938 27.35222 74.78125 25.6875 C 74.06306 24.02269 73.35994 22.40397 72.6875 20.78125 C 72.01502 19.15848 71.37417 17.53963 70.71875 15.90625 C 70.509225 15.384207 70.304284 14.844365 70.09375 14.3125 C 70.04102 14.188773 69.990302 14.061511 69.9375 13.9375 C 69.357999 12.576735 68.660934 10.970357 68.0625 9.5625 C 66.872758 6.7499814 65.613699 3.7660368 64.25 0.5625 z M 77.5625 48.90625 L 78.15625 51.46875 C 78.764133 54.174799 78.6669 54.85053 77.8125 53.78125 C 77.533878 53.432602 77.36322 52.20041 77.4375 51.03125 L 77.5625 48.90625 z M 74.65625 50.96875 C 74.739151 50.955382 74.913785 51.126225 75.1875 51.5 C 75.552943 51.999101 76.08594 53.02331 76.375 53.78125 C 76.889867 55.13178 76.87993 55.13633 75.8125 53.875 C 75.21338 53.16704 74.68031 52.14289 74.625 51.59375 C 74.583549 51.182526 74.573349 50.982118 74.65625 50.96875 z "
       id="path12326"
       transform="translate(457.39063,143.46094)" />
  </g>
</svg>
