<?xml version="1.0" encoding="UTF-8" standalone="no"?>
<!-- Created with Inkscape (http://www.inkscape.org/) -->
<svg
   xmlns:dc="http://purl.org/dc/elements/1.1/"
   xmlns:cc="http://web.resource.org/cc/"
   xmlns:rdf="http://www.w3.org/1999/02/22-rdf-syntax-ns#"
   xmlns:svg="http://www.w3.org/2000/svg"
   xmlns="http://www.w3.org/2000/svg"
   xmlns:xlink="http://www.w3.org/1999/xlink"
   xmlns:sodipodi="http://sodipodi.sourceforge.net/DTD/sodipodi-0.dtd"
   xmlns:inkscape="http://www.inkscape.org/namespaces/inkscape"
   width="128"
   height="128"
   id="svg2488"
   sodipodi:version="0.32"
   inkscape:version="0.45.1"
   sodipodi:docbase="/home/thayer/tmp/archlinux-logo-contest/archer/masters"
   sodipodi:docname="archlinux-mods-openbox.svg"
   inkscape:output_extension="org.inkscape.output.svg.inkscape"
   version="1.0">
  <defs
     id="defs2490">
    <linearGradient
       inkscape:collect="always"
       xlink:href="#path1082_2_"
       id="linearGradient2223"
       gradientUnits="userSpaceOnUse"
       gradientTransform="matrix(-0.2652794,0,0,0.2652645,207.89863,-12.5586)"
       x1="541.33502"
       y1="104.50665"
       x2="606.91248"
       y2="303.14029" />
    <linearGradient
       inkscape:collect="always"
       xlink:href="#path1082_2_"
       id="linearGradient2216"
       gradientUnits="userSpaceOnUse"
       gradientTransform="matrix(-0.2652794,0,0,0.2652645,207.89863,-12.5586)"
       x1="541.33502"
       y1="104.50665"
       x2="606.91248"
       y2="303.14029" />
    <linearGradient
       inkscape:collect="always"
       xlink:href="#path1082_2_"
       id="linearGradient16260"
       gradientUnits="userSpaceOnUse"
       gradientTransform="matrix(-0.2655026,0,0,0.2652645,410.96414,745.53758)"
       x1="541.33502"
       y1="104.50665"
       x2="606.91248"
       y2="303.14029" />
    <linearGradient
       inkscape:collect="always"
       xlink:href="#path1082_2_"
       id="linearGradient14312"
       gradientUnits="userSpaceOnUse"
       gradientTransform="matrix(-0.2655026,0,0,0.2652645,410.96414,745.53758)"
       x1="541.33502"
       y1="104.50665"
       x2="606.91248"
       y2="303.14029" />
    <linearGradient
       inkscape:collect="always"
       xlink:href="#path1082_2_"
       id="linearGradient12330"
       gradientUnits="userSpaceOnUse"
       gradientTransform="matrix(-0.2655026,0,0,0.2652645,410.96414,745.53758)"
       x1="541.33502"
       y1="104.50665"
       x2="606.91248"
       y2="303.14029" />
    <linearGradient
       inkscape:collect="always"
       xlink:href="#path1082_2_"
       id="linearGradient3457"
       gradientUnits="userSpaceOnUse"
       gradientTransform="matrix(0.265284,0,0,0.263072,63.728962,131.00373)"
       x1="541.33502"
       y1="104.50665"
       x2="606.91248"
       y2="303.14029" />
    <linearGradient
       inkscape:collect="always"
       xlink:href="#path1082_2_"
       id="linearGradient7399"
       gradientUnits="userSpaceOnUse"
       gradientTransform="matrix(-0.2655026,0,0,0.2652645,410.96414,745.53758)"
       x1="541.33502"
       y1="104.50665"
       x2="606.91248"
       y2="303.14029" />
    <linearGradient
       inkscape:collect="always"
       xlink:href="#path1082_2_"
       id="linearGradient8412"
       gradientUnits="userSpaceOnUse"
       gradientTransform="matrix(-0.2655026,0,0,0.2652645,410.96414,745.53758)"
       x1="541.33502"
       y1="104.50665"
       x2="606.91248"
       y2="303.14029" />
    <linearGradient
       gradientUnits="userSpaceOnUse"
       id="path1082_2_"
       y2="129.3468"
       x2="112.49853"
       y1="6.1372099"
       x1="112.49854"
       gradientTransform="translate(287,-83)">
      <stop
         id="stop193"
         offset="0"
         style="stop-color:#ffffff;stop-opacity:0" />
      <stop
         id="stop195"
         offset="1"
         style="stop-color:#ffffff;stop-opacity:0.27218935" />
      <midPointStop
         id="midPointStop197"
         style="stop-color:#FFFFFF"
         offset="0" />
      <midPointStop
         id="midPointStop199"
         style="stop-color:#FFFFFF"
         offset="0.5" />
      <midPointStop
         id="midPointStop201"
         style="stop-color:#000000"
         offset="1" />
    </linearGradient>
    <linearGradient
       inkscape:collect="always"
       xlink:href="#path1082_2_"
       id="linearGradient13315"
       gradientUnits="userSpaceOnUse"
       gradientTransform="matrix(-0.2655026,0,0,0.2652645,410.96414,745.53758)"
       x1="541.33502"
       y1="104.50665"
       x2="606.91248"
       y2="303.14029" />
    <linearGradient
       inkscape:collect="always"
       xlink:href="#path1082_2_"
       id="linearGradient2250"
       gradientUnits="userSpaceOnUse"
       gradientTransform="matrix(-0.2655026,0,0,0.2652645,410.96414,745.53758)"
       x1="541.33502"
       y1="104.50665"
       x2="606.91248"
       y2="303.14029" />
    <linearGradient
       inkscape:collect="always"
       xlink:href="#path1082_2_"
       id="linearGradient3094"
       gradientUnits="userSpaceOnUse"
       gradientTransform="matrix(-0.2655026,0,0,0.2652645,410.96414,745.53758)"
       x1="541.33502"
       y1="104.50665"
       x2="606.91248"
       y2="303.14029" />
    <linearGradient
       inkscape:collect="always"
       xlink:href="#path1082_2_"
       id="linearGradient2369"
       gradientUnits="userSpaceOnUse"
       gradientTransform="matrix(-0.2655026,0,0,0.2652645,410.96414,745.53758)"
       x1="541.33502"
       y1="104.50665"
       x2="606.91248"
       y2="303.14029" />
    <linearGradient
       inkscape:collect="always"
       xlink:href="#path1082_2_"
       id="linearGradient2371"
       gradientUnits="userSpaceOnUse"
       gradientTransform="matrix(-0.2655026,0,0,0.2652645,410.96414,745.53758)"
       x1="541.33502"
       y1="104.50665"
       x2="606.91248"
       y2="303.14029" />
    <linearGradient
       inkscape:collect="always"
       xlink:href="#path1082_2_"
       id="linearGradient2373"
       gradientUnits="userSpaceOnUse"
       gradientTransform="matrix(-0.2655026,0,0,0.2652645,410.96414,745.53758)"
       x1="541.33502"
       y1="104.50665"
       x2="606.91248"
       y2="303.14029" />
    <linearGradient
       inkscape:collect="always"
       xlink:href="#path1082_2_"
       id="linearGradient2375"
       gradientUnits="userSpaceOnUse"
       gradientTransform="matrix(0.265284,0,0,0.263072,63.728962,131.00373)"
       x1="541.33502"
       y1="104.50665"
       x2="606.91248"
       y2="303.14029" />
    <linearGradient
       inkscape:collect="always"
       xlink:href="#path1082_2_"
       id="linearGradient2377"
       gradientUnits="userSpaceOnUse"
       gradientTransform="matrix(-0.2655026,0,0,0.2652645,410.96414,745.53758)"
       x1="541.33502"
       y1="104.50665"
       x2="606.91248"
       y2="303.14029" />
    <linearGradient
       inkscape:collect="always"
       xlink:href="#path1082_2_"
       id="linearGradient2379"
       gradientUnits="userSpaceOnUse"
       gradientTransform="matrix(-0.2655026,0,0,0.2652645,410.96414,745.53758)"
       x1="541.33502"
       y1="104.50665"
       x2="606.91248"
       y2="303.14029" />
    <linearGradient
       inkscape:collect="always"
       xlink:href="#path1082_2_"
       id="linearGradient2381"
       gradientUnits="userSpaceOnUse"
       gradientTransform="matrix(-0.2655026,0,0,0.2652645,410.96414,745.53758)"
       x1="541.33502"
       y1="104.50665"
       x2="606.91248"
       y2="303.14029" />
    <linearGradient
       inkscape:collect="always"
       xlink:href="#path1082_2_"
       id="linearGradient2506"
       gradientUnits="userSpaceOnUse"
       gradientTransform="matrix(-0.2655026,0,0,0.2652645,410.96414,745.53758)"
       x1="541.33502"
       y1="104.50665"
       x2="606.91248"
       y2="303.14029" />
    <linearGradient
       inkscape:collect="always"
       xlink:href="#path1082_2_"
       id="linearGradient2508"
       gradientUnits="userSpaceOnUse"
       gradientTransform="matrix(-0.2655026,0,0,0.2652645,410.96414,745.53758)"
       x1="541.33502"
       y1="104.50665"
       x2="606.91248"
       y2="303.14029" />
    <linearGradient
       inkscape:collect="always"
       xlink:href="#path1082_2_"
       id="linearGradient2510"
       gradientUnits="userSpaceOnUse"
       gradientTransform="matrix(-0.2655026,0,0,0.2652645,410.96414,745.53758)"
       x1="541.33502"
       y1="104.50665"
       x2="606.91248"
       y2="303.14029" />
    <linearGradient
       inkscape:collect="always"
       xlink:href="#path1082_2_"
       id="linearGradient2512"
       gradientUnits="userSpaceOnUse"
       gradientTransform="matrix(0.265284,0,0,0.263072,63.728962,131.00373)"
       x1="541.33502"
       y1="104.50665"
       x2="606.91248"
       y2="303.14029" />
    <linearGradient
       inkscape:collect="always"
       xlink:href="#path1082_2_"
       id="linearGradient2514"
       gradientUnits="userSpaceOnUse"
       gradientTransform="matrix(-0.2655026,0,0,0.2652645,410.96414,745.53758)"
       x1="541.33502"
       y1="104.50665"
       x2="606.91248"
       y2="303.14029" />
    <linearGradient
       inkscape:collect="always"
       xlink:href="#path1082_2_"
       id="linearGradient2516"
       gradientUnits="userSpaceOnUse"
       gradientTransform="matrix(-0.2655026,0,0,0.2652645,410.96414,745.53758)"
       x1="541.33502"
       y1="104.50665"
       x2="606.91248"
       y2="303.14029" />
    <linearGradient
       inkscape:collect="always"
       xlink:href="#path1082_2_"
       id="linearGradient2518"
       gradientUnits="userSpaceOnUse"
       gradientTransform="matrix(-0.2655026,0,0,0.2652645,410.96414,745.53758)"
       x1="541.33502"
       y1="104.50665"
       x2="606.91248"
       y2="303.14029" />
    <linearGradient
       inkscape:collect="always"
       xlink:href="#path1082_2_"
       id="linearGradient2520"
       gradientUnits="userSpaceOnUse"
       gradientTransform="matrix(-0.2655026,0,0,0.2652645,410.96414,745.53758)"
       x1="541.33502"
       y1="104.50665"
       x2="606.91248"
       y2="303.14029" />
    <linearGradient
       inkscape:collect="always"
       xlink:href="#path1082_2_"
       id="linearGradient2522"
       gradientUnits="userSpaceOnUse"
       gradientTransform="matrix(-0.2655026,0,0,0.2652645,410.96414,745.53758)"
       x1="541.33502"
       y1="104.50665"
       x2="606.91248"
       y2="303.14029" />
    <linearGradient
       inkscape:collect="always"
       xlink:href="#path1082_2_"
       id="linearGradient2582"
       gradientUnits="userSpaceOnUse"
       gradientTransform="matrix(-0.2655026,0,0,0.2652645,410.96414,745.53758)"
       x1="541.33502"
       y1="104.50665"
       x2="606.91248"
       y2="303.14029" />
    <linearGradient
       inkscape:collect="always"
       xlink:href="#path1082_2_"
       id="linearGradient2584"
       gradientUnits="userSpaceOnUse"
       gradientTransform="matrix(-0.2655026,0,0,0.2652645,410.96414,745.53758)"
       x1="541.33502"
       y1="104.50665"
       x2="606.91248"
       y2="303.14029" />
    <linearGradient
       inkscape:collect="always"
       xlink:href="#path1082_2_"
       id="linearGradient2586"
       gradientUnits="userSpaceOnUse"
       gradientTransform="matrix(0.265284,0,0,0.263072,63.728962,131.00373)"
       x1="541.33502"
       y1="104.50665"
       x2="606.91248"
       y2="303.14029" />
    <linearGradient
       inkscape:collect="always"
       xlink:href="#path1082_2_"
       id="linearGradient2588"
       gradientUnits="userSpaceOnUse"
       gradientTransform="matrix(-0.2655026,0,0,0.2652645,410.96414,745.53758)"
       x1="541.33502"
       y1="104.50665"
       x2="606.91248"
       y2="303.14029" />
    <linearGradient
       inkscape:collect="always"
       xlink:href="#path1082_2_"
       id="linearGradient2590"
       gradientUnits="userSpaceOnUse"
       gradientTransform="matrix(-0.2655026,0,0,0.2652645,410.96414,745.53758)"
       x1="541.33502"
       y1="104.50665"
       x2="606.91248"
       y2="303.14029" />
    <linearGradient
       inkscape:collect="always"
       xlink:href="#path1082_2_"
       id="linearGradient2592"
       gradientUnits="userSpaceOnUse"
       gradientTransform="matrix(-0.2655026,0,0,0.2652645,410.96414,745.53758)"
       x1="541.33502"
       y1="104.50665"
       x2="606.91248"
       y2="303.14029" />
    <linearGradient
       inkscape:collect="always"
       xlink:href="#path1082_2_"
       id="linearGradient2594"
       gradientUnits="userSpaceOnUse"
       gradientTransform="matrix(-0.2655026,0,0,0.2652645,410.96414,745.53758)"
       x1="541.33502"
       y1="104.50665"
       x2="606.91248"
       y2="303.14029" />
    <linearGradient
       inkscape:collect="always"
       xlink:href="#path1082_2_"
       id="linearGradient2596"
       gradientUnits="userSpaceOnUse"
       gradientTransform="matrix(-0.2655026,0,0,0.2652645,410.96414,745.53758)"
       x1="541.33502"
       y1="104.50665"
       x2="606.91248"
       y2="303.14029" />
    <linearGradient
       inkscape:collect="always"
       xlink:href="#path1082_2_"
       id="linearGradient2720"
       gradientUnits="userSpaceOnUse"
       gradientTransform="matrix(-0.2655026,0,0,0.2652645,410.96414,745.53758)"
       x1="541.33502"
       y1="104.50665"
       x2="606.91248"
       y2="303.14029" />
    <linearGradient
       inkscape:collect="always"
       xlink:href="#path1082_2_"
       id="linearGradient2722"
       gradientUnits="userSpaceOnUse"
       gradientTransform="matrix(-0.2655026,0,0,0.2652645,410.96414,745.53758)"
       x1="541.33502"
       y1="104.50665"
       x2="606.91248"
       y2="303.14029" />
    <linearGradient
       inkscape:collect="always"
       xlink:href="#path1082_2_"
       id="linearGradient2724"
       gradientUnits="userSpaceOnUse"
       gradientTransform="matrix(-0.2655026,0,0,0.2652645,410.96414,745.53758)"
       x1="541.33502"
       y1="104.50665"
       x2="606.91248"
       y2="303.14029" />
    <linearGradient
       inkscape:collect="always"
       xlink:href="#path1082_2_"
       id="linearGradient2726"
       gradientUnits="userSpaceOnUse"
       gradientTransform="matrix(0.265284,0,0,0.263072,63.728962,131.00373)"
       x1="541.33502"
       y1="104.50665"
       x2="606.91248"
       y2="303.14029" />
    <linearGradient
       inkscape:collect="always"
       xlink:href="#path1082_2_"
       id="linearGradient2728"
       gradientUnits="userSpaceOnUse"
       gradientTransform="matrix(-0.2655026,0,0,0.2652645,410.96414,745.53758)"
       x1="541.33502"
       y1="104.50665"
       x2="606.91248"
       y2="303.14029" />
    <linearGradient
       inkscape:collect="always"
       xlink:href="#path1082_2_"
       id="linearGradient2730"
       gradientUnits="userSpaceOnUse"
       gradientTransform="matrix(-0.2655026,0,0,0.2652645,410.96414,745.53758)"
       x1="541.33502"
       y1="104.50665"
       x2="606.91248"
       y2="303.14029" />
    <linearGradient
       inkscape:collect="always"
       xlink:href="#path1082_2_"
       id="linearGradient2732"
       gradientUnits="userSpaceOnUse"
       gradientTransform="matrix(-0.2655026,0,0,0.2652645,410.96414,745.53758)"
       x1="541.33502"
       y1="104.50665"
       x2="606.91248"
       y2="303.14029" />
    <linearGradient
       inkscape:collect="always"
       xlink:href="#path1082_2_"
       id="linearGradient2734"
       gradientUnits="userSpaceOnUse"
       gradientTransform="matrix(-0.2655026,0,0,0.2652645,410.96414,745.53758)"
       x1="541.33502"
       y1="104.50665"
       x2="606.91248"
       y2="303.14029" />
    <linearGradient
       inkscape:collect="always"
       xlink:href="#path1082_2_"
       id="linearGradient2736"
       gradientUnits="userSpaceOnUse"
       gradientTransform="matrix(-0.2655026,0,0,0.2652645,410.96414,745.53758)"
       x1="541.33502"
       y1="104.50665"
       x2="606.91248"
       y2="303.14029" />
    <linearGradient
       inkscape:collect="always"
       xlink:href="#path1082_2_"
       id="linearGradient2212"
       gradientUnits="userSpaceOnUse"
       gradientTransform="matrix(-0.2652794,0,0,0.2652645,341.28926,299.90234)"
       x1="541.33502"
       y1="104.50665"
       x2="606.91248"
       y2="303.14029" />
  </defs>
  <sodipodi:namedview
     id="base"
     pagecolor="#ffffff"
     bordercolor="#666666"
     borderopacity="1.0"
     gridtolerance="10000"
     guidetolerance="10"
     objecttolerance="10"
     inkscape:pageopacity="0.0"
     inkscape:pageshadow="2"
     inkscape:zoom="1"
     inkscape:cx="64"
     inkscape:cy="64"
     inkscape:document-units="px"
     inkscape:current-layer="layer1"
     inkscape:window-width="1032"
     inkscape:window-height="1028"
     inkscape:window-x="0"
     inkscape:window-y="16" />
  <metadata
     id="metadata2493">
    <rdf:RDF>
      <cc:Work
         rdf:about="">
        <dc:format>image/svg+xml</dc:format>
        <dc:type
           rdf:resource="http://purl.org/dc/dcmitype/StillImage" />
      </cc:Work>
    </rdf:RDF>
  </metadata>
  <g
     inkscape:label="Layer 1"
     inkscape:groupmode="layer"
     id="layer1"
     transform="translate(-133.39063,-312.46094)">
    <path
       style="fill:#1a1a1a;fill-opacity:1;fill-rule:evenodd;stroke:none;stroke-width:1;stroke-linecap:round;stroke-linejoin:round;stroke-miterlimit:10;stroke-dasharray:none;stroke-opacity:1"
       d="M 64 0 C 58.302591 13.96853 54.84331 23.13421 48.5 36.6875 C 52.38923 40.810098 57.18474 45.57775 64.9375 51 C 56.602538 47.570211 50.90509 44.13575 46.65625 40.5625 C 38.53802 57.50245 25.81083 81.6232 0 128 C 22.577714 114.96549 39.504306 107.50387 55.59375 105.5625 C 54.67255 104.68267 53.695265 103.62192 52.78125 102.5 C 50.262621 99.408601 47.48941 95.96875 46.625 94.84375 C 45.66222 93.590749 44.90514 88.5329 44.65625 81.8125 C 44.389162 74.602601 44.57344 72.07335 45.21875 74.40625 C 45.758809 76.358748 46.26676 80.38395 46.34375 83.34375 C 46.45332 87.553851 47.46566 90.05485 50.9375 94.84375 C 57.242981 103.54115 58.30907 102.9884 58.28125 91.25 L 58.28125 81.5 L 52.34375 75.25 C 49.08509 71.805198 45.91509 69.2958 45.28125 69.6875 C 43.942089 70.515101 43.74972 66.75535 45.03125 64.78125 C 45.858479 63.506852 66.89021 57.25 70.34375 57.25 C 71.245943 57.250001 75.63211 60.7932 80.09375 65.125 L 88.1875 73 L 87.375 85.53125 C 86.913189 92.425148 85.95969 98.7451 85.28125 99.5625 C 84.523907 100.47501 77.032722 103.19875 70.21875 105.34375 C 86.976395 106.84809 104.41112 114.38171 128 128 C 124.05404 120.73519 120.51976 114.20572 117.15625 107.96875 C 111.85821 103.86241 106.33475 98.50441 95.0625 92.71875 C 102.81039 94.731967 108.36341 97.06 112.6875 99.65625 C 78.489911 35.986329 75.7271 27.52019 64 0 z M 69.03125 62.9375 L 60.1875 65.03125 L 51.34375 67.125 L 54.9375 71.65625 C 58.86714 76.61755 60.97469 77.08035 67.375 74.40625 C 69.711648 73.430048 72.77128 72.60375 74.15625 72.59375 C 79.408003 72.555946 79.42632 70.89645 74.21875 66.90625 L 69.03125 62.9375 z M 82.09375 73.4375 C 78.823271 73.261851 60.927391 80.15175 61.46875 81.5625 C 61.779231 82.3716 61.47653 83.3828 60.78125 83.8125 C 59.392229 84.670896 59.00585 101.31835 60.34375 102.65625 C 60.797912 103.11035 61.72133 103.2504 62.40625 103 C 63.0911 102.7496 67.38139 101.32725 71.9375 99.84375 C 76.493572 98.360249 80.87388 96.6439 81.6875 96 C 83.149154 94.843103 83.92749 74.95865 82.5625 73.59375 C 82.484365 73.515619 82.311782 73.44921 82.09375 73.4375 z "
       transform="translate(133.39063,312.46094)"
       id="path13309" />
    <path
       style="fill:#ffffff;fill-opacity:0.16568047;fill-rule:evenodd;stroke:none;stroke-width:36.09999847;stroke-linecap:butt;stroke-linejoin:round;stroke-miterlimit:10;stroke-opacity:1"
       d="M 233.41652,388.53982 C 205.67323,350.88419 199.24263,320.5349 197.61379,313.2892 C 212.41285,347.42383 212.31178,347.84243 233.41652,388.53982 z "
       id="path13313"
       sodipodi:nodetypes="ccc" />
    <path
       style="fill:url(#linearGradient2223);fill-opacity:1;fill-rule:evenodd;stroke:none;stroke-width:0.71416688;stroke-linecap:round;stroke-linejoin:round;stroke-miterlimit:10;stroke-dasharray:none;stroke-opacity:1"
       d="M 64.25 0.5625 C 63.54057 2.30655 62.84306 3.98332 62.1875 5.59375 C 61.45915 7.38295 60.75089 9.10666 60.0625 10.78125 C 59.37417 12.45586 58.70758 14.10571 58.03125 15.71875 C 57.35487 17.33185 56.66106 18.92664 55.96875 20.53125 C 55.27649 22.13582 54.57991 23.7259 53.84375 25.375 C 53.1076 27.02416 52.33918 28.72202 51.53125 30.46875 C 50.72325 32.21548 49.87641 34.00893 48.96875 35.90625 C 48.84125 36.17275 48.69228 36.47993 48.5625 36.75 C 49.532208 37.777175 50.57321 38.830484 51.6875 39.9375 C 52.232178 40.478512 52.784484 41.033582 53.375 41.59375 C 54.589339 42.745683 55.88794 43.954339 57.34375 45.1875 C 57.355378 45.197353 57.363354 45.208892 57.375 45.21875 C 58.822069 46.443404 60.407879 47.695018 62.15625 49 C 62.163069 49.005091 62.180676 48.994908 62.1875 49 C 63.062285 49.652625 63.975582 50.327239 64.9375 51 C 62.863416 50.146527 60.953263 49.293619 59.1875 48.4375 C 59.178871 48.433317 59.164872 48.441683 59.15625 48.4375 C 58.860812 48.294146 58.599898 48.143497 58.3125 48 C 57.18656 47.438024 56.102801 46.877347 55.09375 46.3125 C 54.82535 46.162144 54.541839 45.994365 54.28125 45.84375 C 54.273236 45.839121 54.258006 45.848379 54.25 45.84375 C 53.971756 45.682783 53.73831 45.50504 53.46875 45.34375 C 52.295579 44.642399 51.177009 43.958899 50.15625 43.25 C 50.14396 43.241465 50.137269 43.227286 50.125 43.21875 C 49.506372 42.788282 48.912116 42.371378 48.34375 41.9375 C 47.765608 41.496227 47.218158 41.039166 46.6875 40.59375 C 46.46832 41.04119 46.28827 41.44815 46.0625 41.90625 C 45.23032 43.59494 44.30598 45.43019 43.375 47.28125 C 43.14767 47.73325 42.95251 48.13103 42.71875 48.59375 C 42.672951 48.68566 42.608564 48.782666 42.5625 48.875 C 42.495483 49.00026 42.435522 49.128888 42.375 49.25 C 41.471115 51.059145 40.574597 52.859495 39.5625 54.84375 C 38.513808 56.90283 37.398642 59.037763 36.21875 61.3125 C 35.839019 62.043533 35.51934 62.682422 35.125 63.4375 C 34.297876 65.024124 33.457196 66.583654 32.5625 68.28125 C 31.27307 70.725776 29.942327 73.270115 28.5 75.96875 C 33.483534 73.15945 38.613666 69.987682 44.21875 67.25 C 44.31796 66.387719 44.578423 65.478796 45.03125 64.78125 C 45.858479 63.506852 66.89021 57.25 70.34375 57.25 C 70.910196 57.250001 72.905384 58.732045 75.375 60.84375 C 81.022813 61.301656 87.192354 62.589297 94.03125 65.03125 C 92.43658 62.01099 90.97058 59.16296 89.59375 56.5 C 88.21694 53.83697 86.93777 51.35824 85.75 49 C 84.56233 46.64182 83.4648 44.41848 82.4375 42.3125 C 81.41023 40.20657 80.458 38.21887 79.5625 36.3125 C 78.66694 34.40618 77.82367 32.57178 77.03125 30.8125 C 76.23877 29.05324 75.49937 27.35222 74.78125 25.6875 C 74.06306 24.02269 73.35993 22.40397 72.6875 20.78125 C 72.01502 19.15848 71.37417 17.53963 70.71875 15.90625 C 70.509225 15.384207 70.304284 14.844365 70.09375 14.3125 C 70.04102 14.188773 69.990302 14.061511 69.9375 13.9375 C 69.357999 12.576735 68.660934 10.970357 68.0625 9.5625 C 66.872759 6.7499814 65.613699 3.7660368 64.25 0.5625 z "
       id="path13311"
       transform="translate(133.39063,312.46094)" />
  </g>
</svg>
